<?xml version='1.0' encoding='utf-8'?>
<svg xmlns="http://www.w3.org/2000/svg" width="1920" height="1080" viewBox="0 0 1920 1080" data-theme="light">
  <style>
        @font-face {
            font-family: 'Inter';
            src: url('assets/fonts/Inter-Regular.ttf') format('truetype');
            font-weight: 400;
            font-style: normal;
            font-display: swap;
        }
        @font-face {
            font-family: 'Inter';
            src: url('assets/fonts/Inter-Bold.ttf') format('truetype');
            font-weight: 600;
            font-style: normal;
            font-display: swap;
        }
        @font-face {
            font-family: 'Inter';
            src: url('assets/fonts/Inter-Bold.ttf') format('truetype');
            font-weight: 800;
            font-style: normal;
            font-display: swap;
        }
        
:root {
    --background: #f8fafc;
    --panel: #ffffff;
    --primary-text: #0f172a;
    --muted-text: #64748b;
    --inverse-text: #ffffff;
    --border: #e2e8f0;
    --shadow-color: #000000;
    --icon-pad-bg: #1e293b;
    --art-glow: #0891b2;
    --art-glow-opacity: 0.10;
    --art-sheen: #ffffff;
    --art-sheen-opacity: 0.34;
    --art-shadow: #0f172a;
    --art-shadow-opacity: 0.14;
    --art-muted-line: #94a3b8;
    --art-panel-tint: #f1f5f9;
    --font-family: 'Inter', 'Segoe UI', 'Kalam', Roboto, Helvetica, Arial, sans-serif;
    --radius-xl: 16px;
    --font-family-headline: 'Inter', 'Segoe UI', 'Kalam', Roboto, Helvetica, Arial, sans-serif;
    --font-family-body: 'Inter', 'Segoe UI', 'Kalam', Roboto, Helvetica, Arial, sans-serif;
    --font-heading: 'Inter', 'Segoe UI', 'Kalam', Roboto, Helvetica, Arial, sans-serif;
    --font-body: 'Inter', 'Segoe UI', 'Kalam', Roboto, Helvetica, Arial, sans-serif;
    --font-size-h1: 56px;
    --font-size-h2: 40px;
    --font-size-h3: 28px;
    --font-size-body: 24px;
    --font-size-caption: 18px;
    --secondary-text: var(--muted-text);
    --panel-border: var(--border);
    --font-weight-normal: 400;
    --font-weight-medium: 500;
    --font-weight-semibold: 600;
    --font-weight-bold: 700;
    --spacing-gutter-pct: 0.07;
    --spacing-top-pct: 0.15;
    --spacing-bottom-pct: 0.07;
    --spacing-title-y-pct: 0.055;
    --accent-1: #2563eb;
    --accent-2: #16a34a;
    --accent-3: #ea580c;
    --accent-4: #7c3aed;
    --accent-5: #0284c7;
    --accent-6: #475569;
}
:root[data-theme="dark"] {
    --background: #0f172a;
    --panel: #1e293b;
    --primary-text: #f1f5f9;
    --muted-text: #94a3b8;
    --inverse-text: #0f172a;
    --border: #334155;
    --shadow-color: #000000;
    --icon-pad-bg: #1e293b;
    --art-glow: #7dd3fc;
    --art-glow-opacity: 0.18;
    --art-sheen: #ffffff;
    --art-sheen-opacity: 0.18;
    --art-shadow: #000000;
    --art-shadow-opacity: 0.28;
    --art-muted-line: #64748b;
    --art-panel-tint: #1e293b;
    --accent-1: #60a5fa;
    --accent-2: #4ade80;
    --accent-3: #f97316;
    --accent-4: #a78bfa;
    --accent-5: #38bdf8;
    --accent-6: #94a3b8;
}
:root[data-theme="light"] {
    --background: #f8fafc;
    --panel: #ffffff;
    --primary-text: #0f172a;
    --muted-text: #64748b;
    --inverse-text: #ffffff;
    --border: #e2e8f0;
    --shadow-color: #000000;
    --icon-pad-bg: #1e293b;
    --art-glow: #0891b2;
    --art-glow-opacity: 0.10;
    --art-sheen: #ffffff;
    --art-sheen-opacity: 0.34;
    --art-shadow: #0f172a;
    --art-shadow-opacity: 0.14;
    --art-muted-line: #94a3b8;
    --art-panel-tint: #f1f5f9;
    --accent-1: #2563eb;
    --accent-2: #16a34a;
    --accent-3: #ea580c;
    --accent-4: #7c3aed;
    --accent-5: #0284c7;
    --accent-6: #475569;
}</style>
  <rect x="0" y="0" width="1.92E+3" height="1.08E+3" fill="#252a34" stroke="none" id="programmatic_background"/>
  <line id="HEADER_DECOR" x1="960.0" x2="1080.0" y1="135.0" y2="135.0" stroke="var(--accent-1)" stroke-width="6" stroke-linecap="round"/>
  <defs>
    <pattern id="svg8cebdf9c-napkin-hatch" patternUnits="userSpaceOnUse" width="12" height="12">
      <path d="M -3 12 L 12 -3 M 0 15 L 15 0" fill="none" stroke="var(--primary-text)" stroke-width="1" stroke-opacity="0.05"/>
    </pattern>
    <filter id="svg8cebdf9c-shadow" x="-30%" y="-30%" width="160%" height="160%">
      <feDropShadow dx="0" dy="2" stdDeviation="3" flood-color="#000000" flood-opacity="0.08"/>
      <feDropShadow dx="0" dy="6" stdDeviation="10" flood-color="#000000" flood-opacity="0.12"/>
    </filter>
    <radialGradient id="svg8cebdf9c-universal-edge-vignette" cx="50%" cy="50%" r="72%">
      <stop offset="0%" stop-color="var(--background)" stop-opacity="0"/>
      <stop offset="72%" stop-color="var(--background)" stop-opacity="0.12"/>
      <stop offset="100%" stop-color="var(--primary-text)" stop-opacity="0.08"/>
    </radialGradient>
    <linearGradient id="svg8cebdf9c-universal-surface-sheen" x1="0%" y1="0%" x2="100%" y2="100%">
      <stop offset="0%" stop-color="var(--art-sheen)" stop-opacity="var(--art-sheen-opacity)"/>
      <stop offset="46%" stop-color="var(--art-sheen)" stop-opacity="0.035"/>
      <stop offset="100%" stop-color="var(--art-panel-tint)" stop-opacity="0.14"/>
    </linearGradient>
    <radialGradient id="svg8cebdf9c-universal-icon-aura" cx="50%" cy="42%" r="64%">
      <stop offset="0%" stop-color="var(--art-glow)" stop-opacity="var(--art-glow-opacity)"/>
      <stop offset="100%" stop-color="var(--background)" stop-opacity="0"/>
    </radialGradient>
    <filter id="svg8cebdf9c-text-glow" x="-20%" y="-20%" width="140%" height="140%">
      <feDropShadow dx="0" dy="0" stdDeviation="2" flood-color="#000000" flood-opacity="0.4"/>
    </filter>
    <marker id="svg8cebdf9c-arrowhead" markerWidth="10" markerHeight="7" refX="9" refY="3.5" orient="auto" markerUnits="strokeWidth">
      <polygon points="0 0, 10 3.5, 0 7" fill="var(--muted-text)" opacity="0.6"/>
    </marker>
  </defs>
  <rect width="100%" height="100%" fill="var(--background)" id="CANVAS_BG"/>
  <rect width="100%" height="100%" fill="url(#svg8cebdf9c-napkin-hatch)"/>
  <rect id="UNIVERSAL_EDGE_VIGNETTE" width="100%" height="100%" fill="url(#svg8cebdf9c-universal-edge-vignette)" opacity="0.62"/>
  <text id="TITLE" x="960.0" y="59" text-anchor="middle" font-weight="800" font-size="56" fill="#0f172a" style="font-size: 60px; font-family: Inter, Segoe UI, Kalam, Roboto, Helvetica, Arial, sans-serif; font-weight: 700; letter-spacing:-1.2px;" data-final-font-size="60">
    <tspan x="960.0" dy="68.00px">Planning for Obstacles</tspan>
  </text>
  <rect id="TITLE_FRAME" x="134" y="59" width="1652" height="103" fill="none"/>
  <g transform="translate(960, 560)">
    <circle r="180" fill="var(--panel)" fill-opacity="0.72" stroke="var(--muted-text)" stroke-width="3" stroke-dasharray="12 6" opacity="0.75"/>
    <circle id="CENTER_PAD" r="118" fill="var(--icon-pad-bg)" stroke="none" opacity="0.96"/>
    <g id="CENTER_ICON" transform="translate(-70, -70)" data-icon-size="140" stroke-dasharray="8 5">
      <g transform="translate(-35.188571428571436,-35.18857142857143) scale(6.574285714285715)">
        <path d="M18.6992 4.62713L20.9469 8.93616C21.288 9.57602 21.9102 10.0259 22.6326 10.1259L27.3788 10.7758C29.9175 11.1257 30.9008 14.255 29.0244 15.9946L25.7733 18.9939C25.2114 19.5138 24.9505 20.2836 25.091 21.0334L25.8837 25.4324C26.3252 27.8819 23.7765 29.7915 21.5389 28.6717L17.0034 26.4222C16.3713 26.1123 15.6287 26.1123 14.9966 26.4222L10.4611 28.6717C8.22347 29.7815 5.67477 27.8819 6.11628 25.4324L6.90898 21.0334C7.04946 20.2836 6.78857 19.5138 6.22665 18.9939L2.97556 15.9946C1.09916 14.265 2.08251 11.1257 4.62118 10.7758L9.36737 10.1259C10.0898 10.0259 10.722 9.58601 11.0531 8.93616L13.3008 4.62713C14.4447 2.45762 17.5653 2.45762 18.6992 4.62713Z" fill="#FCD53F"/>
      </g>
    </g>
    <circle r="92" fill="none" stroke="var(--primary-text)" stroke-width="3" stroke-dasharray="8 5" opacity="0.8"/>
    <text id="CENTER_LABEL" x="0" y="12" text-anchor="middle" font-weight="800" font-size="34" fill="var(--primary-text)" display="none">SUBJECT</text>
  </g>
  <g transform="translate(430, 380)">
    <line x1="60" y1="36" x2="350" y2="160" stroke="var(--accent-1)" stroke-width="4.5" stroke-dasharray="6 6" opacity="0.75"/>
    <circle cx="350" cy="160" r="7" fill="var(--accent-1)"/>
    <circle id="ITEM_1_PAD" r="56" fill="var(--icon-pad-bg)" stroke="var(--primary-text)" opacity="0.95" fill-opacity="0.9" stroke-width="2"/>
    <circle id="ITEM_1_PAD_INNER" cx="0" cy="0" r="43.68" fill="var(--accent-3)" fill-opacity="0.22"/>
    <circle id="ITEM_1_NODE" r="46" fill="none" stroke="var(--accent-1)" stroke-width="3" stroke-dasharray="6 4" filter="url(#svg8cebdf9c-shadow)"/>
    <rect id="ITEM_1_TEXT_BG" x="-355" y="-76" width="275" height="168" rx="24" fill="var(--panel)" fill-opacity="0.96" filter="url(#svg8cebdf9c-shadow)" stroke="none"/>
    <text id="ITEM_1_HEAD" x="-110.0" y="-50.0" text-anchor="end" font-weight="bold" font-size="32" fill="var(--primary-text)" data-bg-id="ITEM_1_TEXT_BG" fill-opacity="1.0" style="font-size: 20px; font-family: Inter, Segoe UI, Kalam, Roboto, Helvetica, Arial, sans-serif; font-weight: 700; letter-spacing:-0.4px;" data-final-font-size="20">
      <tspan x="-110.0" dy="26.50px">Predictable Obstacles</tspan>
    </text>
    <rect id="ITEM_1_HEAD_FRAME" x="-320" y="-50" width="210" height="46" fill="none"/>
    <text id="ITEM_1_BODY" x="-110.0" y="2.0" text-anchor="end" font-size="20" fill="var(--primary-text)" data-bg-id="ITEM_1_TEXT_BG" style="font-size: 23px; font-family: Inter, Segoe UI, Kalam, Roboto, Helvetica, Arial, sans-serif; font-weight: 400;" data-final-font-size="23">
      <tspan x="-110.0" dy="22.53px">Identifies</tspan>
      <tspan x="-110.0" dy="26.45px">specific cues for</tspan>
      <tspan x="-110.0" dy="26.45px">unwanted behaviour</tspan>
    </text>
    <rect id="ITEM_1_BODY_FRAME" x="-320" y="2" width="210" height="100" fill="none"/>
    <g id="ITEM_1_ICON" transform="translate(-33, -33)" data-icon-size="66" stroke-dasharray="6 4">
      <g transform="translate(-16.92,-16.92) scale(3.12)">
        <path d="M16.98 3C16.98 2.44772 16.5323 2 15.98 2C15.4278 2 14.98 2.44772 14.98 3V22.9638H16.98V3Z" fill="#433B6B"/>
        <path d="M5.5 14.98C6.78 14.98 7.9 15.68 8.5 16.71C8.6 16.87 8.77 16.97 8.96 16.97H9.02C9.21 16.97 9.38 16.87 9.48 16.71C10.09 15.68 11.2 14.98 12.48 14.98C13.76 14.98 14.88 15.68 15.48 16.71C15.58 16.87 15.75 16.97 15.94 16.97H16C16.19 16.97 16.36 16.87 16.46 16.71C17.07 15.68 18.18 14.98 19.46 14.98C20.74 14.98 21.86 15.68 22.46 16.71C22.56 16.87 22.73 16.97 22.92 16.97H22.98C23.17 16.97 23.34 16.87 23.44 16.71C24.05 15.68 25.16 14.98 26.44 14.98C27.78 14.98 28.94 15.74 29.52 16.86C29.56 16.93 29.63 16.98 29.71 16.98C29.83 16.98 29.93 16.88 29.93 16.76C29.83 9.14 23.62 3 15.97 3C8.32 3 2.12 9.14 2 16.75C2 16.87 2.1 16.97 2.22 16.97C2.3 16.97 2.38 16.92 2.41 16.85C3 15.74 4.16 14.98 5.5 14.98Z" fill="#8D65C5"/>
        <path d="M15.98 21.96C16.5323 21.96 16.98 22.4077 16.98 22.96V26.5C16.98 28.4222 15.4323 29.97 13.51 29.97C11.5851 29.97 10.04 28.4096 10.04 26.5C10.04 25.9477 10.4878 25.5 11.04 25.5C11.5923 25.5 12.04 25.9477 12.04 26.5C12.04 27.3103 12.695 27.97 13.51 27.97C14.3278 27.97 14.98 27.3177 14.98 26.5V22.96C14.98 22.4077 15.4278 21.96 15.98 21.96Z" fill="#8C5543"/>
      </g>
    </g>
  </g>
  <g transform="translate(1490, 380)">
    <line x1="-60" y1="36" x2="-350" y2="160" stroke="var(--accent-2)" stroke-width="4.5" stroke-dasharray="6 6" opacity="0.75"/>
    <circle cx="-350" cy="160" r="7" fill="var(--accent-2)"/>
    <circle id="ITEM_2_PAD" r="56" fill="var(--icon-pad-bg)" stroke="var(--primary-text)" opacity="0.95" fill-opacity="0.9" stroke-width="2"/>
    <circle id="ITEM_2_PAD_INNER" cx="0" cy="0" r="43.68" fill="var(--accent-4)" fill-opacity="0.22"/>
    <circle id="ITEM_2_NODE" r="46" fill="none" stroke="var(--accent-2)" stroke-width="3" stroke-dasharray="6 4" filter="url(#svg8cebdf9c-shadow)"/>
    <rect id="ITEM_2_TEXT_BG" x="80" y="-76" width="275" height="168" rx="24" fill="var(--panel)" fill-opacity="0.96" filter="url(#svg8cebdf9c-shadow)" stroke="none"/>
    <text id="ITEM_2_HEAD" x="110.0" y="-50.0" text-anchor="start" font-weight="bold" font-size="32" fill="var(--accent-4)" data-bg-id="ITEM_2_TEXT_BG" fill-opacity="1.0" style="font-size: 23px; font-family: Inter, Segoe UI, Kalam, Roboto, Helvetica, Arial, sans-serif; font-weight: 700; letter-spacing:-0.4px;" data-final-font-size="23">
      <tspan x="110.0" dy="28.18px">Alternative Action</tspan>
    </text>
    <rect id="ITEM_2_HEAD_FRAME" x="110" y="-50" width="210" height="46" fill="none"/>
    <text id="ITEM_2_BODY" x="110.0" y="2.0" text-anchor="start" font-size="20" fill="var(--primary-text)" data-bg-id="ITEM_2_TEXT_BG" style="font-size: 26px; font-family: Inter, Segoe UI, Kalam, Roboto, Helvetica, Arial, sans-serif; font-weight: 400;" data-final-font-size="26">
      <tspan x="110.0" dy="22.86px">Plans backup</tspan>
      <tspan x="110.0" dy="29.90px">response for</tspan>
      <tspan x="110.0" dy="29.90px">when cue appears</tspan>
    </text>
    <rect id="ITEM_2_BODY_FRAME" x="110" y="2" width="210" height="100" fill="none"/>
    <g id="ITEM_2_ICON" transform="translate(-33, -33)" data-icon-size="66" stroke-dasharray="6 4">
      <g transform="translate(-18.768888888888885,-18.76888888888889) scale(4.314074074074074)" vector-effect="non-scaling-stroke" stroke-width="2.50" stroke-linecap="round" stroke-linejoin="round" stroke-opacity="1.0">
        <path d="M8 21h8" vector-effect="non-scaling-stroke" fill="none" stroke="#f1f5f9"/>
        <path d="M12 16v5" vector-effect="non-scaling-stroke" fill="none" stroke="#f1f5f9"/>
        <path d="M17 5l1 6c0 3.012 -2.686 5 -6 5s-6 -1.988 -6 -5l1 -6" vector-effect="non-scaling-stroke" fill="none" stroke="#f1f5f9"/>
        <path d="M12 5m-5 0a5 2 0 1 0 10 0a5 2 0 1 0 -10 0" vector-effect="non-scaling-stroke" fill="none" stroke="#f1f5f9"/>
      </g>
    </g>
  </g>
  <g transform="translate(430, 740)">
    <line x1="60" y1="-36" x2="350" y2="-160" stroke="var(--accent-3)" stroke-width="4.5" stroke-dasharray="6 6" opacity="0.75"/>
    <circle cx="350" cy="-160" r="7" fill="var(--accent-3)"/>
    <circle id="ITEM_3_PAD" r="56" fill="var(--icon-pad-bg)" stroke="var(--primary-text)" opacity="0.95" fill-opacity="0.9" stroke-width="2"/>
    <circle id="ITEM_3_PAD_INNER" cx="0" cy="0" r="43.68" fill="var(--accent-5)" fill-opacity="0.22"/>
    <circle id="ITEM_3_NODE" r="46" fill="none" stroke="var(--accent-3)" stroke-width="3" stroke-dasharray="6 4" filter="url(#svg8cebdf9c-shadow)"/>
    <rect id="ITEM_3_TEXT_BG" x="-355" y="-76" width="275" height="168" rx="24" fill="var(--panel)" fill-opacity="0.96" filter="url(#svg8cebdf9c-shadow)" stroke="none"/>
    <text id="ITEM_3_HEAD" x="-110.0" y="-50.0" text-anchor="end" font-weight="bold" font-size="32" fill="var(--primary-text)" data-bg-id="ITEM_3_TEXT_BG" fill-opacity="1.0" style="font-size: 25px; font-family: Inter, Segoe UI, Kalam, Roboto, Helvetica, Arial, sans-serif; font-weight: 700; letter-spacing:-0.4px;" data-final-font-size="25">
      <tspan x="-110.0" dy="28.62px">Contingency Shift</tspan>
    </text>
    <rect id="ITEM_3_HEAD_FRAME" x="-320" y="-50" width="210" height="46" fill="none"/>
    <text id="ITEM_3_BODY" x="-110.0" y="2.0" text-anchor="end" font-size="20" fill="var(--primary-text)" data-bg-id="ITEM_3_TEXT_BG" style="font-size: 26px; font-family: Inter, Segoe UI, Kalam, Roboto, Helvetica, Arial, sans-serif; font-weight: 400;" data-final-font-size="26">
      <tspan x="-110.0" dy="22.86px">Moves focus from</tspan>
      <tspan x="-110.0" dy="29.90px">self-discipline</tspan>
      <tspan x="-110.0" dy="29.90px">to planning</tspan>
    </text>
    <rect id="ITEM_3_BODY_FRAME" x="-320" y="2" width="210" height="100" fill="none"/>
    <g id="ITEM_3_ICON" transform="translate(-33, -33)" data-icon-size="66" stroke-dasharray="6 4">
      <g transform="translate(-16.92,-16.92) scale(3.12)">
        <path d="M12.8472 3.83391C12.9336 2.79732 13.8001 2 14.8403 2H17.1597C18.1999 2 19.0664 2.79732 19.1528 3.83391L19.3882 6.6587C19.422 7.06373 19.8992 7.2614 20.2095 6.99887L22.3734 5.16789C23.1674 4.49599 24.3439 4.54493 25.0795 5.28045L26.7196 6.92056C27.4551 7.65608 27.504 8.8326 26.8321 9.62666L25.0012 11.7905C24.7386 12.1008 24.9363 12.578 25.3413 12.6118L28.1661 12.8472C29.2027 12.9336 30 13.8001 30 14.8403V17.1597C30 18.1999 29.2027 19.0664 28.1661 19.1528L25.3413 19.3882C24.9363 19.422 24.7386 19.8992 25.0012 20.2095L26.8321 22.3733C27.504 23.1674 27.4551 24.3439 26.7196 25.0794L25.0795 26.7196C24.3439 27.4551 23.1674 27.504 22.3734 26.8321L20.2095 25.0011C19.8992 24.7386 19.422 24.9363 19.3882 25.3413L19.1528 28.1661C19.0664 29.2027 18.1999 30 17.1597 30H14.8403C13.8001 30 12.9336 29.2027 12.8472 28.1661L12.6118 25.3413C12.578 24.9363 12.1008 24.7386 11.7905 25.0012L9.62666 26.8321C8.8326 27.504 7.65608 27.4551 6.92056 26.7196L5.28045 25.0795C4.54493 24.3439 4.496 23.1674 5.16789 22.3734L6.99888 20.2095C7.26141 19.8992 7.06373 19.422 6.65871 19.3882L3.83391 19.1528C2.79732 19.0664 2 18.1999 2 17.1597V14.8403C2 13.8001 2.79732 12.9336 3.83391 12.8472L6.65871 12.6118C7.06373 12.578 7.2614 12.1008 6.99888 11.7905L5.16789 9.62664C4.496 8.83258 4.54493 7.65606 5.28045 6.92054L6.92056 5.28043C7.65608 4.54491 8.8326 4.49597 9.62666 5.16787L11.7905 6.99884C12.1008 7.26137 12.578 7.06369 12.6118 6.65867L12.8472 3.83391ZM21 16C21 13.2386 18.7614 11 16 11C13.2386 11 11 13.2386 11 16C11 18.7614 13.2386 21 16 21C18.7614 21 21 18.7614 21 16Z" fill="#B4ACBC"/>
        <path d="M24 16C24 20.4183 20.4183 24 16 24C11.5817 24 8 20.4183 8 16C8 11.5817 11.5817 8 16 8C20.4183 8 24 11.5817 24 16ZM20.5 16C20.5 13.5147 18.4853 11.5 16 11.5C13.5147 11.5 11.5 13.5147 11.5 16C11.5 18.4853 13.5147 20.5 16 20.5C18.4853 20.5 20.5 18.4853 20.5 16Z" fill="#998EA4"/>
        <path d="M10.5 16C10.5 12.9624 12.9624 10.5 16 10.5C19.0376 10.5 21.5 12.9624 21.5 16C21.5 19.0376 19.0376 21.5 16 21.5C12.9624 21.5 10.5 19.0376 10.5 16ZM21 16C21 13.2386 18.7614 11 16 11C13.2386 11 11 13.2386 11 16C11 18.7614 13.2386 21 16 21C18.7614 21 21 18.7614 21 16Z" fill="#CDC4D6"/>
      </g>
    </g>
  </g>
  <g transform="translate(1490, 740)">
    <line x1="-60" y1="-36" x2="-350" y2="-160" stroke="var(--accent-4)" stroke-width="4.5" stroke-dasharray="6 6" opacity="0.75"/>
    <circle cx="-350" cy="-160" r="7" fill="var(--accent-4)"/>
    <circle id="ITEM_4_PAD" r="56" fill="var(--icon-pad-bg)" stroke="var(--primary-text)" opacity="0.95" fill-opacity="0.9" stroke-width="2"/>
    <circle id="ITEM_4_PAD_INNER" cx="0" cy="0" r="43.68" fill="var(--accent-6)" fill-opacity="0.22"/>
    <circle id="ITEM_4_NODE" r="46" fill="none" stroke="var(--accent-4)" stroke-width="3" stroke-dasharray="6 4" filter="url(#svg8cebdf9c-shadow)"/>
    <rect id="ITEM_4_TEXT_BG" x="80" y="-76" width="275" height="168" rx="24" fill="var(--panel)" fill-opacity="0.96" filter="url(#svg8cebdf9c-shadow)" stroke="none"/>
    <text id="ITEM_4_HEAD" x="110.0" y="-50.0" text-anchor="start" font-weight="bold" font-size="32" fill="var(--accent-6)" data-bg-id="ITEM_4_TEXT_BG" fill-opacity="1.0" style="font-size: 30px; font-family: Inter, Segoe UI, Kalam, Roboto, Helvetica, Arial, sans-serif; font-weight: 700; letter-spacing:-0.4px;" data-final-font-size="30">
      <tspan x="110.0" dy="31.25px">Real Triggers</tspan>
    </text>
    <rect id="ITEM_4_HEAD_FRAME" x="110" y="-50" width="210" height="46" fill="none"/>
    <text id="ITEM_4_BODY" x="110.0" y="2.0" text-anchor="start" font-size="20" fill="var(--primary-text)" data-bg-id="ITEM_4_TEXT_BG" style="font-size: 21px; font-family: Inter, Segoe UI, Kalam, Roboto, Helvetica, Arial, sans-serif; font-weight: 400;" data-final-font-size="21">
      <tspan x="110.0" dy="17.48px">Addresses actual</tspan>
      <tspan x="110.0" dy="24.15px">situations rather</tspan>
      <tspan x="110.0" dy="24.15px">than</tspan>
      <tspan x="110.0" dy="24.15px">hypothetical ones</tspan>
    </text>
    <rect id="ITEM_4_BODY_FRAME" x="110" y="2" width="210" height="100" fill="none"/>
    <g id="ITEM_4_ICON" transform="translate(-33, -33)" data-icon-size="66" stroke-dasharray="6 4">
      <g transform="translate(-10.68,-10.68) scale(6.24)" vector-effect="non-scaling-stroke" stroke-width="2.50" stroke-linecap="round" stroke-linejoin="round" stroke-opacity="1.0">
        <path id="Vector" fill="none" d="M6 11.5a5.5 5.5 0 1 0 0 -11 5.5 5.5 0 0 0 0 11Z" vector-effect="non-scaling-stroke" stroke="#f1f5f9"/>
        <path id="Vector_2" stroke="#f1f5f9" d="M6 11.5a5.5 5.5 0 1 0 0 -11 5.5 5.5 0 0 0 0 11Z" vector-effect="non-scaling-stroke" fill="none"/>
        <path id="Vector_3" stroke="#f1f5f9" d="M13.5 13.5 10 10" vector-effect="non-scaling-stroke" fill="none"/>
      </g>
    </g>
  </g>
</svg>
