<?xml version='1.0' encoding='utf-8'?>
<svg xmlns="http://www.w3.org/2000/svg" width="1920" height="1080" viewBox="0 0 1920 1080" data-theme="dark">
  <style>
        @font-face {
            font-family: 'Inter';
            src: url('assets/fonts/Inter-Regular.ttf') format('truetype');
            font-weight: 400;
            font-style: normal;
            font-display: swap;
        }
        @font-face {
            font-family: 'Inter';
            src: url('assets/fonts/Inter-Bold.ttf') format('truetype');
            font-weight: 600;
            font-style: normal;
            font-display: swap;
        }
        @font-face {
            font-family: 'Inter';
            src: url('assets/fonts/Inter-Bold.ttf') format('truetype');
            font-weight: 800;
            font-style: normal;
            font-display: swap;
        }
        
:root {
    --background: #0f172a;
    --panel: #1e293b;
    --primary-text: #f1f5f9;
    --muted-text: #94a3b8;
    --inverse-text: #0f172a;
    --border: #334155;
    --shadow-color: #000000;
    --icon-pad-bg: #1e293b;
    --art-glow: #7dd3fc;
    --art-glow-opacity: 0.18;
    --art-sheen: #ffffff;
    --art-sheen-opacity: 0.18;
    --art-shadow: #000000;
    --art-shadow-opacity: 0.28;
    --art-muted-line: #64748b;
    --art-panel-tint: #1e293b;
    --font-family: 'Inter', 'Segoe UI', 'Kalam', Roboto, Helvetica, Arial, sans-serif;
    --radius-xl: 16px;
    --font-family-headline: 'Inter', 'Segoe UI', 'Kalam', Roboto, Helvetica, Arial, sans-serif;
    --font-family-body: 'Inter', 'Segoe UI', 'Kalam', Roboto, Helvetica, Arial, sans-serif;
    --font-heading: 'Inter', 'Segoe UI', 'Kalam', Roboto, Helvetica, Arial, sans-serif;
    --font-body: 'Inter', 'Segoe UI', 'Kalam', Roboto, Helvetica, Arial, sans-serif;
    --font-size-h1: 56px;
    --font-size-h2: 40px;
    --font-size-h3: 28px;
    --font-size-body: 24px;
    --font-size-caption: 18px;
    --secondary-text: var(--muted-text);
    --panel-border: var(--border);
    --font-weight-normal: 400;
    --font-weight-medium: 500;
    --font-weight-semibold: 600;
    --font-weight-bold: 700;
    --spacing-gutter-pct: 0.07;
    --spacing-top-pct: 0.15;
    --spacing-bottom-pct: 0.07;
    --spacing-title-y-pct: 0.055;
    --accent-1: #93c5fd;
    --accent-2: #86efac;
    --accent-3: #fcd34d;
    --accent-4: #f9a8d4;
    --accent-5: #c4b5fd;
    --accent-6: #a5f3fc;
}
:root[data-theme="dark"] {
    --background: #0f172a;
    --panel: #1e293b;
    --primary-text: #f1f5f9;
    --muted-text: #94a3b8;
    --inverse-text: #0f172a;
    --border: #334155;
    --shadow-color: #000000;
    --icon-pad-bg: #1e293b;
    --art-glow: #7dd3fc;
    --art-glow-opacity: 0.18;
    --art-sheen: #ffffff;
    --art-sheen-opacity: 0.18;
    --art-shadow: #000000;
    --art-shadow-opacity: 0.28;
    --art-muted-line: #64748b;
    --art-panel-tint: #1e293b;
    --accent-1: #93c5fd;
    --accent-2: #86efac;
    --accent-3: #fcd34d;
    --accent-4: #f9a8d4;
    --accent-5: #c4b5fd;
    --accent-6: #a5f3fc;
}
:root[data-theme="light"] {
    --background: #f8fafc;
    --panel: #ffffff;
    --primary-text: #0f172a;
    --muted-text: #64748b;
    --inverse-text: #ffffff;
    --border: #e2e8f0;
    --shadow-color: #000000;
    --icon-pad-bg: #1e293b;
    --art-glow: #0891b2;
    --art-glow-opacity: 0.10;
    --art-sheen: #ffffff;
    --art-sheen-opacity: 0.34;
    --art-shadow: #0f172a;
    --art-shadow-opacity: 0.14;
    --art-muted-line: #94a3b8;
    --art-panel-tint: #f1f5f9;
    --accent-1: #3b82f6;
    --accent-2: #22c55e;
    --accent-3: #f59e0b;
    --accent-4: #ec4899;
    --accent-5: #8b5cf6;
    --accent-6: #06b6d4;
}</style>
  <rect x="0" y="0" width="1.92E+3" height="1.08E+3" fill="#252a34" stroke="none" id="programmatic_background"/>
  <line id="HEADER_DECOR" x1="960.0" x2="1080.0" y1="135.0" y2="135.0" stroke="var(--accent-1)" stroke-width="6" stroke-linecap="round"/>
  <defs>
    <pattern id="svg36673387-napkin-hatch" patternUnits="userSpaceOnUse" width="12" height="12">
      <path d="M -3 12 L 12 -3 M 0 15 L 15 0" fill="none" stroke="var(--primary-text)" stroke-width="1" stroke-opacity="0.05"/>
    </pattern>
    <radialGradient id="svg36673387-universal-edge-vignette" cx="50%" cy="50%" r="72%">
      <stop offset="0%" stop-color="var(--background)" stop-opacity="0"/>
      <stop offset="72%" stop-color="var(--background)" stop-opacity="0.12"/>
      <stop offset="100%" stop-color="var(--primary-text)" stop-opacity="0.08"/>
    </radialGradient>
    <linearGradient id="svg36673387-universal-surface-sheen" x1="0%" y1="0%" x2="100%" y2="100%">
      <stop offset="0%" stop-color="var(--art-sheen)" stop-opacity="var(--art-sheen-opacity)"/>
      <stop offset="46%" stop-color="var(--art-sheen)" stop-opacity="0.035"/>
      <stop offset="100%" stop-color="var(--art-panel-tint)" stop-opacity="0.14"/>
    </linearGradient>
    <radialGradient id="svg36673387-universal-icon-aura" cx="50%" cy="42%" r="64%">
      <stop offset="0%" stop-color="var(--art-glow)" stop-opacity="var(--art-glow-opacity)"/>
      <stop offset="100%" stop-color="var(--background)" stop-opacity="0"/>
    </radialGradient>
    <filter id="svg36673387-text-glow" x="-20%" y="-20%" width="140%" height="140%">
      <feDropShadow dx="0" dy="0" stdDeviation="2" flood-color="#000000" flood-opacity="0.4"/>
    </filter>
    <filter id="svg36673387-shadow" x="-30%" y="-30%" width="160%" height="160%">
      <feDropShadow dx="0" dy="2" stdDeviation="3" flood-color="#000000" flood-opacity="0.08"/>
      <feDropShadow dx="0" dy="6" stdDeviation="10" flood-color="#000000" flood-opacity="0.12"/>
    </filter>
    <marker id="svg36673387-arrowhead" markerWidth="10" markerHeight="7" refX="9" refY="3.5" orient="auto" markerUnits="strokeWidth">
      <polygon points="0 0, 10 3.5, 0 7" fill="var(--muted-text)" opacity="0.6"/>
    </marker>
  </defs>
  <rect width="100%" height="100%" fill="var(--background)" id="CANVAS_BG"/>
  <rect width="100%" height="100%" fill="url(#svg36673387-napkin-hatch)"/>
  <rect id="UNIVERSAL_EDGE_VIGNETTE" width="100%" height="100%" fill="url(#svg36673387-universal-edge-vignette)" opacity="0.62"/>
  <text id="TITLE" x="960.0" y="59" text-anchor="middle" font-weight="700" font-size="63" fill="#f1f5f9" style="font-size: 60px; font-family: Inter, Segoe UI, Kalam, Roboto, Helvetica, Arial, sans-serif; font-weight: 700; letter-spacing:-1.2px;" data-final-font-size="60">
    <tspan x="960.0" dy="68.00px">Alert Fatigue Risks</tspan>
  </text>
  <rect id="TITLE_FRAME" x="134" y="59" width="1652" height="103" fill="none"/>
  <g id="DIAGRAM_SCALER" transform="translate(50.3, 35.1) scale(0.95)">
    <g transform="translate(345.0, 360.0)">
      <rect id="ITEM_1_BG" x="-270" y="-135" width="540" height="270" rx="22" fill="var(--accent-3)" stroke="var(--accent-1)" stroke-width="2" fill-opacity="0.4"/>
      <circle cx="-180" cy="0" r="50" fill="var(--accent-1)" opacity="0.15"/>
      <g transform="translate(-30.0, -15.0)">
        <text id="ITEM_1_HEAD" text-anchor="start" font-weight="bold" font-size="36" fill="var(--primary-text)" x="-100.0" y="-84.0" data-bg-id="ITEM_1_BG" fill-opacity="1.0" stroke="none" style="font-size: 30px; font-family: Inter, Segoe UI, Kalam, Roboto, Helvetica, Arial, sans-serif; font-weight: 700; letter-spacing:-0.4px;" data-final-font-size="30">
          <tspan x="-100.0" dy="36.57px">Defensive Muting</tspan>
        </text>
        <rect id="ITEM_1_HEAD_FRAME" x="-100" y="-84" width="380" height="48" fill="none"/>
        <text id="ITEM_1_BODY" text-anchor="start" font-size="24" fill="var(--primary-text)" x="-100.0" y="-8.0" data-bg-id="ITEM_1_BG" style="font-size: 24px; font-family: Inter, Segoe UI, Kalam, Roboto, Helvetica, Arial, sans-serif; font-weight: 400;" data-final-font-size="24">
          <tspan x="-100.0" dy="40.73px">Users silence categories</tspan>
          <tspan x="-100.0" dy="27.60px">to manage volume</tspan>
        </text>
        <rect id="ITEM_1_BODY_FRAME" x="-100" y="-8" width="430" height="138" fill="none"/>
        <rect id="ITEM_1_TEXT_FRAME" x="-100" y="-4" width="380" height="128" fill="none"/>
      </g>
      <circle id="ITEM_1_PAD" cx="-186" cy="0.0" r="48" fill="var(--icon-pad-bg)" stroke="var(--primary-text)" opacity="0.9" fill-opacity="0.9" stroke-width="2"/>
      <circle id="ITEM_1_PAD_INNER" cx="-186" cy="0.0" r="37.44" fill="var(--accent-3)" fill-opacity="0.22"/>
      <circle cx="-186" cy="0.0" r="38" fill="none" stroke="var(--accent-1)" stroke-width="3" stroke-dasharray="6 4"/>
      <g id="ITEM_1_ICON" transform="translate(-224, -38)" data-icon-size="76" stroke-dasharray="6 4">
        <g transform="translate(0.0,0.0) scale(5.428571428571429)" vector-effect="non-scaling-stroke" stroke-width="2.62" stroke-linecap="round" stroke-linejoin="round" stroke-opacity="1.0">
          <path id="Vector" fill="none" d="M3 5.00002H1.5c-0.544667 0 -1 0.45533 -1 1v2c0 0.54466 0.455333 1 1 1H3L6.91 11.81c0.6453 0.4465 1.57254 -0.0236 1.59 -0.81V3c0.01874 -0.78684 -0.8529 -1.25773 -1.5 -0.81L3 5.00002Z" vector-effect="non-scaling-stroke" stroke="#f1f5f9"/>
          <path id="Vector_2" stroke="#f1f5f9" d="M10.5 7h3" vector-effect="non-scaling-stroke" fill="none"/>
          <path id="Vector_3" stroke="#f1f5f9" d="M3 5.00002H1.5c-0.544667 0 -1 0.45533 -1 1v2c0 0.54466 0.455333 1 1 1H3L6.91 11.81c0.6453 0.4465 1.57254 -0.0236 1.59 -0.81V3c0.01874 -0.78684 -0.8529 -1.25773 -1.5 -0.81L3 5.00002Z" vector-effect="non-scaling-stroke" fill="none"/>
        </g>
      </g>
    </g>
    <g transform="translate(960.0, 360.0)">
      <rect id="ITEM_2_BG" x="-270" y="-135" width="540" height="270" rx="22" fill="var(--accent-4)" stroke="var(--accent-2)" stroke-width="2" fill-opacity="0.4"/>
      <circle cx="-180" cy="0" r="50" fill="var(--accent-1)" opacity="0.15"/>
      <g transform="translate(-30.0, -15.0)">
        <text id="ITEM_2_HEAD" text-anchor="start" font-weight="bold" font-size="36" fill="var(--primary-text)" x="-100.0" y="-84.0" data-bg-id="ITEM_2_BG" fill-opacity="1.0" stroke="none" style="font-size: 30px; font-family: Inter, Segoe UI, Kalam, Roboto, Helvetica, Arial, sans-serif; font-weight: 700; letter-spacing:-0.4px;" data-final-font-size="30">
          <tspan x="-100.0" dy="36.57px">Learned Dismissal</tspan>
        </text>
        <rect id="ITEM_2_HEAD_FRAME" x="-100" y="-84" width="380" height="48" fill="none"/>
        <text id="ITEM_2_BODY" text-anchor="start" font-size="24" fill="var(--primary-text)" x="-100.0" y="-8.0" data-bg-id="ITEM_2_BG" style="font-size: 24px; font-family: Inter, Segoe UI, Kalam, Roboto, Helvetica, Arial, sans-serif; font-weight: 400;" data-final-font-size="24">
          <tspan x="-100.0" dy="40.73px">Automatic swiping reinforces</tspan>
          <tspan x="-100.0" dy="27.60px">wrong habits</tspan>
        </text>
        <rect id="ITEM_2_BODY_FRAME" x="-100" y="-8" width="430" height="138" fill="none"/>
        <rect id="ITEM_2_TEXT_FRAME" x="-100" y="-4" width="380" height="128" fill="none"/>
      </g>
      <circle id="ITEM_2_PAD" cx="-186" cy="0.0" r="48" fill="var(--icon-pad-bg)" stroke="var(--primary-text)" opacity="0.9" fill-opacity="0.9" stroke-width="2"/>
      <circle id="ITEM_2_PAD_INNER" cx="-186" cy="0.0" r="37.44" fill="var(--accent-4)" fill-opacity="0.22"/>
      <circle cx="-186" cy="0.0" r="38" fill="none" stroke="var(--accent-2)" stroke-width="3" stroke-dasharray="6 4"/>
      <g id="ITEM_2_ICON" transform="translate(-224, -38)" data-icon-size="76" stroke-dasharray="6 4">
        <g transform="translate(-7.037037037037036,-7.037037037037036) scale(3.753086419753086)" vector-effect="non-scaling-stroke" stroke-width="2.62" stroke-linecap="round" stroke-linejoin="round" stroke-opacity="1.0">
          <path d="M15 16.572v2.42a2.01 2.01 0 0 1 -2.009 2.008h-7.981a2.01 2.01 0 0 1 -2.01 -2.009v-7.981a2.01 2.01 0 0 1 2.009 -2.01h2.954" vector-effect="non-scaling-stroke" fill="none" stroke="#f1f5f9"/>
          <path d="M9.167 4.511a2.04 2.04 0 0 1 2.496 -1.441l7.826 2.097a2.04 2.04 0 0 1 1.441 2.496l-2.097 7.826a2.04 2.04 0 0 1 -2.496 1.441l-7.827 -2.097a2.04 2.04 0 0 1 -1.441 -2.496l2.098 -7.827z" vector-effect="non-scaling-stroke" fill="none" stroke="#f1f5f9"/>
        </g>
      </g>
    </g>
    <g transform="translate(1575.0, 360.0)">
      <rect id="ITEM_3_BG" x="-270" y="-135" width="540" height="270" rx="22" fill="var(--accent-5)" stroke="var(--accent-3)" stroke-width="2" fill-opacity="0.4"/>
      <circle cx="-180" cy="0" r="50" fill="var(--accent-1)" opacity="0.15"/>
      <g transform="translate(-30.0, -15.0)">
        <text id="ITEM_3_HEAD" text-anchor="start" font-weight="bold" font-size="36" fill="var(--primary-text)" x="-100.0" y="-84.0" data-bg-id="ITEM_3_BG" fill-opacity="1.0" stroke="none" style="font-size: 30px; font-family: Inter, Segoe UI, Kalam, Roboto, Helvetica, Arial, sans-serif; font-weight: 700; letter-spacing:-0.4px;" data-final-font-size="30">
          <tspan x="-100.0" dy="36.57px">Trust Erosion</tspan>
        </text>
        <rect id="ITEM_3_HEAD_FRAME" x="-100" y="-84" width="380" height="48" fill="none"/>
        <text id="ITEM_3_BODY" text-anchor="start" font-size="24" fill="var(--primary-text)" x="-100.0" y="-8.0" data-bg-id="ITEM_3_BG" style="font-size: 24px; font-family: Inter, Segoe UI, Kalam, Roboto, Helvetica, Arial, sans-serif; font-weight: 400;" data-final-font-size="24">
          <tspan x="-100.0" dy="40.73px">System credibility drops</tspan>
          <tspan x="-100.0" dy="27.60px">when alerts are low-value</tspan>
        </text>
        <rect id="ITEM_3_BODY_FRAME" x="-100" y="-8" width="430" height="138" fill="none"/>
        <rect id="ITEM_3_TEXT_FRAME" x="-100" y="-4" width="380" height="128" fill="none"/>
      </g>
      <circle id="ITEM_3_PAD" cx="-186" cy="0.0" r="48" fill="var(--icon-pad-bg)" stroke="var(--primary-text)" opacity="0.9" fill-opacity="0.9" stroke-width="2"/>
      <circle id="ITEM_3_PAD_INNER" cx="-186" cy="0.0" r="37.44" fill="var(--accent-5)" fill-opacity="0.22"/>
      <circle cx="-186" cy="0.0" r="38" fill="none" stroke="var(--accent-3)" stroke-width="3" stroke-dasharray="6 4"/>
      <g id="ITEM_3_ICON" transform="translate(-224, -38)" data-icon-size="76" stroke-dasharray="6 4">
        <g transform="translate(-3.2203389830508473,-3.2203389830508473) scale(3.4350282485875705)" vector-effect="non-scaling-stroke" stroke-width="2.62" stroke-linecap="round" stroke-linejoin="round" stroke-opacity="1.0">
          <path d="M3.85 8.62a4 4 0 0 1 4.78-4.77 4 4 0 0 1 6.74 0 4 4 0 0 1 4.78 4.78 4 4 0 0 1 0 6.74 4 4 0 0 1-4.77 4.78 4 4 0 0 1-6.75 0 4 4 0 0 1-4.78-4.77 4 4 0 0 1 0-6.76Z" vector-effect="non-scaling-stroke" fill="none" stroke="#f1f5f9"/>
          <line x1="12" x2="12" y1="8" y2="12" vector-effect="non-scaling-stroke" fill="none" stroke="#f1f5f9"/>
          <line x1="12" x2="12.01" y1="16" y2="16" vector-effect="non-scaling-stroke" fill="none" stroke="#f1f5f9"/>
        </g>
      </g>
    </g>
    <g transform="translate(652.5, 720.0)">
      <rect id="ITEM_4_BG" x="-270" y="-135" width="540" height="270" rx="22" fill="var(--accent-6)" stroke="var(--accent-4)" stroke-width="2" fill-opacity="0.4"/>
      <circle cx="-180" cy="0" r="50" fill="var(--accent-1)" opacity="0.15"/>
      <g transform="translate(-30.0, -15.0)">
        <text id="ITEM_4_HEAD" text-anchor="start" font-weight="bold" font-size="36" fill="var(--primary-text)" x="-100.0" y="-84.0" data-bg-id="ITEM_4_BG" fill-opacity="1.0" stroke="none" style="font-size: 30px; font-family: Inter, Segoe UI, Kalam, Roboto, Helvetica, Arial, sans-serif; font-weight: 700; letter-spacing:-0.4px;" data-final-font-size="30">
          <tspan x="-100.0" dy="36.57px">Attention Fragment</tspan>
        </text>
        <rect id="ITEM_4_HEAD_FRAME" x="-100" y="-84" width="380" height="48" fill="none"/>
        <text id="ITEM_4_BODY" text-anchor="start" font-size="24" fill="var(--primary-text)" x="-100.0" y="-8.0" data-bg-id="ITEM_4_BG" style="font-size: 24px; font-family: Inter, Segoe UI, Kalam, Roboto, Helvetica, Arial, sans-serif; font-weight: 400;" data-final-font-size="24">
          <tspan x="-100.0" dy="40.73px">Multiple sources split focus</tspan>
          <tspan x="-100.0" dy="27.60px">and reduce focus</tspan>
        </text>
        <rect id="ITEM_4_BODY_FRAME" x="-100" y="-8" width="430" height="138" fill="none"/>
        <rect id="ITEM_4_TEXT_FRAME" x="-100" y="-4" width="380" height="128" fill="none"/>
      </g>
      <circle id="ITEM_4_PAD" cx="-186" cy="0.0" r="48" fill="var(--icon-pad-bg)" stroke="var(--primary-text)" opacity="0.9" fill-opacity="0.9" stroke-width="2"/>
      <circle id="ITEM_4_PAD_INNER" cx="-186" cy="0.0" r="37.44" fill="var(--accent-6)" fill-opacity="0.22"/>
      <circle cx="-186" cy="0.0" r="38" fill="none" stroke="var(--accent-4)" stroke-width="3" stroke-dasharray="6 4"/>
      <g id="ITEM_4_ICON" transform="translate(-224, -38)" data-icon-size="76" stroke-dasharray="6 4">
        <g transform="translate(-5.428571428571429,-5.428571428571427) scale(2.7142857142857144)" vector-effect="non-scaling-stroke" fill="#f1f5f9" fill-opacity="1.0" stroke="none">
          <path fill="#f1f5f9" d="M15 4h2v24h-2zm-5 3v18H4V7zm0-2H4a2 2 0 0 0-2 2v18a2 2 0 0 0 2 2h6a2 2 0 0 0 2-2V7a2 2 0 0 0-2-2m18 2v18h-6V7zm0-2h-6a2 2 0 0 0-2 2v18a2 2 0 0 0 2 2h6a2 2 0 0 0 2-2V7a2 2 0 0 0-2-2" vector-effect="non-scaling-stroke" stroke="none"/>
        </g>
      </g>
    </g>
    <g transform="translate(1267.5, 720.0)">
      <rect id="ITEM_5_BG" x="-270" y="-135" width="540" height="270" rx="22" fill="var(--accent-1)" stroke="var(--accent-5)" stroke-width="2" fill-opacity="0.4"/>
      <circle cx="-180" cy="0" r="50" fill="var(--accent-1)" opacity="0.15"/>
      <g transform="translate(-30.0, -15.0)">
        <text id="ITEM_5_HEAD" text-anchor="start" font-weight="bold" font-size="36" fill="var(--primary-text)" x="-100.0" y="-84.0" data-bg-id="ITEM_5_BG" fill-opacity="1.0" stroke="none" style="font-size: 30px; font-family: Inter, Segoe UI, Kalam, Roboto, Helvetica, Arial, sans-serif; font-weight: 700; letter-spacing:-0.4px;" data-final-font-size="30">
          <tspan x="-100.0" dy="36.57px">Anxiety Rise</tspan>
        </text>
        <rect id="ITEM_5_HEAD_FRAME" x="-100" y="-84" width="380" height="48" fill="none"/>
        <text id="ITEM_5_BODY" text-anchor="start" font-size="24" fill="var(--primary-text)" x="-100.0" y="-8.0" data-bg-id="ITEM_5_BG" style="font-size: 24px; font-family: Inter, Segoe UI, Kalam, Roboto, Helvetica, Arial, sans-serif; font-weight: 400;" data-final-font-size="24">
          <tspan x="-100.0" dy="40.73px">Constant buzzing increases stress</tspan>
          <tspan x="-100.0" dy="27.60px">and distraction</tspan>
        </text>
        <rect id="ITEM_5_BODY_FRAME" x="-100" y="-8" width="430" height="138" fill="none"/>
        <rect id="ITEM_5_TEXT_FRAME" x="-100" y="-4" width="380" height="128" fill="none"/>
      </g>
      <circle id="ITEM_5_PAD" cx="-186" cy="0.0" r="48" fill="var(--icon-pad-bg)" stroke="var(--primary-text)" opacity="0.9" fill-opacity="0.9" stroke-width="2"/>
      <circle id="ITEM_5_PAD_INNER" cx="-186" cy="0.0" r="37.44" fill="var(--accent-1)" fill-opacity="0.22"/>
      <circle cx="-186" cy="0.0" r="38" fill="none" stroke="var(--accent-5)" stroke-width="3" stroke-dasharray="6 4"/>
      <g id="ITEM_5_ICON" transform="translate(-224, -38)" data-icon-size="76" stroke-dasharray="6 4">
        <g transform="translate(-6.725663716814159,-3.3628318584070795) scale(3.5870206489675516)" vector-effect="non-scaling-stroke" stroke-width="2.62" stroke-linecap="round" stroke-linejoin="round" stroke-opacity="1.0">
          <path d="M20 4l-2 2" vector-effect="non-scaling-stroke" fill="none" stroke="#f1f5f9"/>
          <path d="M22 10.5l-2.5 -.5" vector-effect="non-scaling-stroke" fill="none" stroke="#f1f5f9"/>
          <path d="M13.5 2l.5 2.5" vector-effect="non-scaling-stroke" fill="none" stroke="#f1f5f9"/>
          <path d="M5 4h4l2 5l-2.5 1.5a11 11 0 0 0 5 5l1.5 -2.5l5 2v4a2 2 0 0 1 -2 2c-8.072 -.49 -14.51 -6.928 -15 -15a2 2 0 0 1 2 -2" vector-effect="non-scaling-stroke" fill="none" stroke="#f1f5f9"/>
        </g>
      </g>
    </g>
  </g>
</svg>
