<?xml version='1.0' encoding='utf-8'?>
<svg xmlns="http://www.w3.org/2000/svg" width="1920" height="1080" viewBox="0 0 1920 1080" data-theme="dark">
  <style>
        @font-face {
            font-family: 'Inter';
            src: url('assets/fonts/Inter-Regular.ttf') format('truetype');
            font-weight: 400;
            font-style: normal;
            font-display: swap;
        }
        @font-face {
            font-family: 'Inter';
            src: url('assets/fonts/Inter-Bold.ttf') format('truetype');
            font-weight: 600;
            font-style: normal;
            font-display: swap;
        }
        @font-face {
            font-family: 'Inter';
            src: url('assets/fonts/Inter-Bold.ttf') format('truetype');
            font-weight: 800;
            font-style: normal;
            font-display: swap;
        }
        
:root {
    --background: #0f172a;
    --panel: #1e293b;
    --primary-text: #f1f5f9;
    --muted-text: #94a3b8;
    --inverse-text: #0f172a;
    --border: #334155;
    --shadow-color: #000000;
    --icon-pad-bg: #1e293b;
    --art-glow: #7dd3fc;
    --art-glow-opacity: 0.18;
    --art-sheen: #ffffff;
    --art-sheen-opacity: 0.18;
    --art-shadow: #000000;
    --art-shadow-opacity: 0.28;
    --art-muted-line: #64748b;
    --art-panel-tint: #1e293b;
    --font-family: 'Inter', 'Segoe UI', 'Kalam', Roboto, Helvetica, Arial, sans-serif;
    --radius-xl: 16px;
    --font-family-headline: 'Inter', 'Segoe UI', 'Kalam', Roboto, Helvetica, Arial, sans-serif;
    --font-family-body: 'Inter', 'Segoe UI', 'Kalam', Roboto, Helvetica, Arial, sans-serif;
    --font-heading: 'Inter', 'Segoe UI', 'Kalam', Roboto, Helvetica, Arial, sans-serif;
    --font-body: 'Inter', 'Segoe UI', 'Kalam', Roboto, Helvetica, Arial, sans-serif;
    --font-size-h1: 56px;
    --font-size-h2: 40px;
    --font-size-h3: 28px;
    --font-size-body: 24px;
    --font-size-caption: 18px;
    --secondary-text: var(--muted-text);
    --panel-border: var(--border);
    --font-weight-normal: 400;
    --font-weight-medium: 500;
    --font-weight-semibold: 600;
    --font-weight-bold: 700;
    --spacing-gutter-pct: 0.07;
    --spacing-top-pct: 0.15;
    --spacing-bottom-pct: 0.07;
    --spacing-title-y-pct: 0.055;
    --accent-1: #22d3ee;
    --accent-2: #f472b6;
    --accent-3: #facc15;
    --accent-4: #a3e635;
    --accent-5: #fb923c;
    --accent-6: #c084fc;
}
:root[data-theme="dark"] {
    --background: #0f172a;
    --panel: #1e293b;
    --primary-text: #f1f5f9;
    --muted-text: #94a3b8;
    --inverse-text: #0f172a;
    --border: #334155;
    --shadow-color: #000000;
    --icon-pad-bg: #1e293b;
    --art-glow: #7dd3fc;
    --art-glow-opacity: 0.18;
    --art-sheen: #ffffff;
    --art-sheen-opacity: 0.18;
    --art-shadow: #000000;
    --art-shadow-opacity: 0.28;
    --art-muted-line: #64748b;
    --art-panel-tint: #1e293b;
    --accent-1: #22d3ee;
    --accent-2: #f472b6;
    --accent-3: #facc15;
    --accent-4: #a3e635;
    --accent-5: #fb923c;
    --accent-6: #c084fc;
}
:root[data-theme="light"] {
    --background: #f8fafc;
    --panel: #ffffff;
    --primary-text: #0f172a;
    --muted-text: #64748b;
    --inverse-text: #ffffff;
    --border: #e2e8f0;
    --shadow-color: #000000;
    --icon-pad-bg: #1e293b;
    --art-glow: #0891b2;
    --art-glow-opacity: 0.10;
    --art-sheen: #ffffff;
    --art-sheen-opacity: 0.34;
    --art-shadow: #0f172a;
    --art-shadow-opacity: 0.14;
    --art-muted-line: #94a3b8;
    --art-panel-tint: #f1f5f9;
    --accent-1: #0891b2;
    --accent-2: #db2777;
    --accent-3: #ca8a04;
    --accent-4: #65a30d;
    --accent-5: #ea580c;
    --accent-6: #9333ea;
}</style>
  <rect x="0" y="0" width="1.92E+3" height="1.08E+3" fill="#252a34" stroke="none" id="programmatic_background"/>
  <line id="HEADER_DECOR" x1="960.0" x2="1080.0" y1="135.0" y2="135.0" stroke="var(--accent-1)" stroke-width="6" stroke-linecap="round"/>
  <defs>
    <pattern id="svgd1628f6f-napkin-hatch" patternUnits="userSpaceOnUse" width="12" height="12">
      <path d="M -3 12 L 12 -3 M 0 15 L 15 0" fill="none" stroke="var(--primary-text)" stroke-width="1" stroke-opacity="0.05"/>
    </pattern>
    <filter id="svgd1628f6f-shadow" x="-30%" y="-30%" width="160%" height="160%">
      <feDropShadow dx="0" dy="2" stdDeviation="3" flood-color="#000000" flood-opacity="0.08"/>
      <feDropShadow dx="0" dy="6" stdDeviation="10" flood-color="#000000" flood-opacity="0.12"/>
    </filter>
    <marker id="svgd1628f6f-arrowhead" markerWidth="10" markerHeight="10" refX="9" refY="5" orient="auto">
      <path d="M 0 0 L 10 5 L 0 10 Z" fill="var(--accent-1)"/>
    </marker>
    <filter id="svgd1628f6f-text-glow" x="-20%" y="-20%" width="140%" height="140%">
      <feDropShadow dx="0" dy="0" stdDeviation="2" flood-color="#000000" flood-opacity="0.4"/>
    </filter>
    <radialGradient id="svgd1628f6f-universal-edge-vignette" cx="50%" cy="50%" r="72%">
      <stop offset="0%" stop-color="var(--background)" stop-opacity="0"/>
      <stop offset="72%" stop-color="var(--background)" stop-opacity="0.12"/>
      <stop offset="100%" stop-color="var(--primary-text)" stop-opacity="0.08"/>
    </radialGradient>
    <linearGradient id="svgd1628f6f-universal-surface-sheen" x1="0%" y1="0%" x2="100%" y2="100%">
      <stop offset="0%" stop-color="var(--art-sheen)" stop-opacity="var(--art-sheen-opacity)"/>
      <stop offset="46%" stop-color="var(--art-sheen)" stop-opacity="0.035"/>
      <stop offset="100%" stop-color="var(--art-panel-tint)" stop-opacity="0.14"/>
    </linearGradient>
    <radialGradient id="svgd1628f6f-universal-icon-aura" cx="50%" cy="42%" r="64%">
      <stop offset="0%" stop-color="var(--art-glow)" stop-opacity="var(--art-glow-opacity)"/>
      <stop offset="100%" stop-color="var(--background)" stop-opacity="0"/>
    </radialGradient>
    <linearGradient id="svgd1628f6f-myth-card-sheen" x1="0%" y1="0%" x2="100%" y2="100%">
      <stop offset="0%" stop-color="var(--inverse-text)" stop-opacity="0.18"/>
      <stop offset="56%" stop-color="var(--inverse-text)" stop-opacity="0.03"/>
      <stop offset="100%" stop-color="var(--background)" stop-opacity="0.12"/>
    </linearGradient>
  </defs>
  <rect width="100%" height="100%" fill="var(--background)" id="CANVAS_BG"/>
  <rect width="100%" height="100%" fill="url(#svgd1628f6f-napkin-hatch)"/>
  <rect id="UNIVERSAL_EDGE_VIGNETTE" width="100%" height="100%" fill="url(#svgd1628f6f-universal-edge-vignette)" opacity="0.62"/>
  <text id="TITLE" x="960.0" y="59" text-anchor="middle" font-weight="800" font-size="56" fill="#f1f5f9" style="font-size: 60px; font-family: Inter, Segoe UI, Kalam, Roboto, Helvetica, Arial, sans-serif; font-weight: 700; letter-spacing:-1.2px;" data-final-font-size="60">
    <tspan x="960.0" dy="68.00px">Habit Timing Factors</tspan>
  </text>
  <rect id="TITLE_FRAME" x="134" y="59" width="1652" height="103" fill="none"/>
  <g transform="translate(0, 190) scale(1.0)">
    <path d="M 920 -8 C 950 80 950 720 920 808" stroke="var(--primary-text)" stroke-width="2" stroke-opacity="0.10" fill="none"/>
    <path d="M 1000 -8 C 970 80 970 720 1000 808" stroke="var(--primary-text)" stroke-width="2" stroke-opacity="0.10" fill="none"/>
    <text x="480.0" y="0" text-anchor="middle" font-weight="900" font-size="52" fill="var(--accent-1)">MYTHS</text>
    <text x="1440.0" y="0" text-anchor="middle" font-weight="900" font-size="52" fill="var(--accent-2)">REALITY</text>
    <!-- Row 1 - cards at y=130 -->
    <g transform="translate(480.0, 130.0)">
      <rect id="ITEM_1_ACCENT_BG" x="-400" y="-110" width="800" height="245" rx="24" fill="var(--accent-6)" fill-opacity="0.15" stroke="none"/>
      <rect id="ITEM_1_BG" x="-400" y="-110" width="800" height="245" rx="18" fill="var(--panel)" stroke="var(--accent-1)" filter="url(#svgd1628f6f-shadow)" stroke-width="3"/>
      <rect x="-388" y="-98" width="776" height="221" rx="16" fill="url(#svgd1628f6f-myth-card-sheen)" opacity="0.92"/>
      <circle id="ITEM_1_PAD" cx="-330" cy="-40" r="46" fill="var(--icon-pad-bg)" stroke="var(--background)" stroke-width="2" stroke-opacity="0.65" opacity="0.94" fill-opacity="0.9"/>
      <circle id="ITEM_1_PAD_INNER" cx="-330" cy="-40" r="35.88" fill="var(--accent-6)" fill-opacity="0.22"/>
      <circle cx="-330" cy="-40" r="34" fill="none" stroke="var(--accent-1)" stroke-width="3" stroke-dasharray="6 4"/>
      <g id="ITEM_1_ICON" transform="translate(-358, -68)" data-icon-size="56" stroke-dasharray="6 4">
        <g transform="translate(-10.920677966101701,-10.920677966101698) scale(3.243389830508475)" vector-effect="non-scaling-stroke" stroke-width="2.38" stroke-linecap="round" stroke-linejoin="round" stroke-opacity="1.0">
          <line x1="10" x2="14" y1="2" y2="2" vector-effect="non-scaling-stroke" fill="none" stroke="#f1f5f9"/>
          <line x1="12" x2="15" y1="14" y2="11" vector-effect="non-scaling-stroke" fill="none" stroke="#f1f5f9"/>
          <circle cx="12" cy="14" r="8" vector-effect="non-scaling-stroke" fill="none" stroke="#f1f5f9"/>
        </g>
      </g>
      <text id="ITEM_1_HEAD" x="0.0" y="-85.0" text-anchor="middle" font-weight="bold" font-size="28" fill="var(--accent-6)" data-bg-id="ITEM_1_BG" fill-opacity="1.0" stroke="none" style="font-size: 30px; font-family: Inter, Segoe UI, Kalam, Roboto, Helvetica, Arial, sans-serif; font-weight: 700; letter-spacing:-0.4px;" data-final-font-size="30">
        <tspan x="0.0" dy="37.75px">Chro not ype Match</tspan>
      </text>
      <rect id="ITEM_1_HEAD_FRAME" x="-310" y="-85" width="620" height="50" fill="none"/>
      <text id="ITEM_1_BODY" x="0.0" y="-20.0" text-anchor="middle" font-size="22" fill="var(--primary-text)" opacity="0.88" data-bg-id="ITEM_1_BG" style="font-size: 26px; font-family: Inter, Segoe UI, Kalam, Roboto, Helvetica, Arial, sans-serif; font-weight: 400;" data-final-font-size="26">
        <tspan x="0.0" dy="51.40px">Align activity with your biological peak</tspan>
      </text>
      <rect id="ITEM_1_BODY_FRAME" x="-310" y="-20" width="620" height="155" fill="none"/>
    </g>
    <g transform="translate(1440.0, 130.0)">
      <rect id="ITEM_2_ACCENT_BG" x="-400" y="-110" width="800" height="245" rx="24" fill="var(--accent-2)" fill-opacity="0.15" stroke="none"/>
      <rect id="ITEM_2_BG" x="-400" y="-110" width="800" height="245" rx="18" fill="var(--panel)" stroke="var(--accent-2)" filter="url(#svgd1628f6f-shadow)" stroke-width="3"/>
      <rect x="-388" y="-98" width="776" height="221" rx="16" fill="url(#svgd1628f6f-myth-card-sheen)" opacity="0.92"/>
      <circle id="ITEM_2_PAD" cx="330" cy="-40" r="46" fill="var(--icon-pad-bg)" stroke="var(--background)" stroke-width="2" stroke-opacity="0.65" opacity="0.94" fill-opacity="0.9"/>
      <circle id="ITEM_2_PAD_INNER" cx="330" cy="-40" r="35.88" fill="var(--accent-2)" fill-opacity="0.22"/>
      <circle cx="330" cy="-40" r="34" fill="none" stroke="var(--accent-2)" stroke-width="3" stroke-dasharray="6 4"/>
      <g id="ITEM_2_ICON" transform="translate(302, -68)" data-icon-size="56" stroke-dasharray="6 4">
        <g transform="translate(-10.920677966101698,-10.920677966101696) scale(0.15203389830508476)" vector-effect="non-scaling-stroke" fill="#f1f5f9" fill-opacity="1.0" stroke="none">
          <path fill="#f1f5f9" d="M260.7 29.45c-25.7.1-51.1 2.14-73.1 5.22l10.2 37.24c41.9-8.58 85.7-5.82 129.7.1l7.8-35.94c-23-4.82-48.9-6.71-74.6-6.62m-88.4 16.28c-10.3 2.62-20.4 5.73-30 9.31c-8.2 3.05-13.3 9.6-19.1 18.13c-5.8 8.52-11.8 19.42-17.9 32.03c-12.3 25.2-25.13 57.1-36.88 88.6c-11.33 30.4-21.58 60.2-29.21 83c6.07-4.8 13.57-7.9 21.58-7.7c6.93-20.4 15.35-44.5 24.5-69c11.63-31.2 24.41-62.8 36.21-87c5.9-12.2 11.6-22.51 16.6-29.78c5-7.31 9.9-11.22 10.4-11.42c9.1-3.37 18.6-6.27 28.4-8.72zm178.2 5.23l-3.9 17.83c11.3 3.98 22 8.81 32 14.49c2.9 1.62 8.5 7.61 14.2 17.02c5.6 9.4 11.7 21.9 17.7 36.4c12.2 28.9 24.4 65.6 35.3 101.5c3.1 10.4 6.2 20.7 9.1 30.7c7.3 1 14.1 4.5 19.5 9.5c.9.8 1.7 1.6 2.5 2.5c-4.3-15.3-8.9-31.5-13.9-47.9c-10.9-36.3-23.3-73.4-35.9-103.3c-6.2-15-12.6-28.1-18.9-38.71c-6.4-10.56-12.5-18.67-20.6-23.33c-11.7-6.64-24.1-12.18-37.1-16.7M318.3 206.6L192 207.7l-.5.1c-30.3 3.2-53.4 30.5-57.7 66c6.1.3 12.1.6 18 .8c3.8-27.8 21.4-46.7 41.5-48.9l123.3-1.1c15.6 2.6 32.3 18.6 36.6 48.9c5.9-.3 11.9-.5 18-.8c-4.9-37.5-26.5-62-52.2-66zm131.9 80.1c-26.5 1.4-51.7 2.8-76 3.9c15.8 61 15.1 122.6 15 183.2c29.1-2.8 59-6.1 90-9.8c.6-.1 2.2-.7 4.5-5.1c2.3-4.3 4.5-11.4 5.9-20.2c2.9-17.6 3.2-41.5.7-65.2c-2.6-23.6-8.1-47-15.7-63.4c-3.8-8.2-8.1-14.6-12.3-18.4c-4.3-3.8-7.9-5.2-12.1-5m-390.9.4c-3.41.1-6.38 1.5-9.92 4.8c-4.05 3.7-8.29 10.1-11.99 18.3c-7.39 16.5-12.67 40.2-15.3 64.2s-2.67 48.4-.36 66.5c1.15 9 2.95 16.5 4.88 21c1.94 4.6 3.57 4.9 2.41 4.7c30.37 5.1 59.95 8.8 89.18 11.4c-5.6-58.2-3.5-119.8 11.9-186.4c-22.1-1-45.11-2.5-69.3-4.4c-.51 0-1.01-.1-1.5-.1m296.5 4.3c-70.4 3-134.8 4.1-207.5 1.1c-15.9 67-17.9 128.3-11.9 187c77.8 5.6 153.6 3.1 234.8-4.1c.1-62.6.8-124.4-15.4-184" vector-effect="non-scaling-stroke" stroke="none"/>
        </g>
      </g>
      <text id="ITEM_2_HEAD" x="0.0" y="-85.0" text-anchor="middle" font-weight="bold" font-size="28" fill="var(--accent-2)" data-bg-id="ITEM_2_BG" fill-opacity="1.0" stroke="none" style="font-size: 30px; font-family: Inter, Segoe UI, Kalam, Roboto, Helvetica, Arial, sans-serif; font-weight: 700; letter-spacing:-0.4px;" data-final-font-size="30">
        <tspan x="0.0" dy="37.75px">Energy Demand</tspan>
      </text>
      <rect id="ITEM_2_HEAD_FRAME" x="-310" y="-85" width="620" height="50" fill="none"/>
      <text id="ITEM_2_BODY" x="0.0" y="-20.0" text-anchor="middle" font-size="22" fill="var(--primary-text)" opacity="0.88" data-bg-id="ITEM_2_BG" style="font-size: 26px; font-family: Inter, Segoe UI, Kalam, Roboto, Helvetica, Arial, sans-serif; font-weight: 400;" data-final-font-size="26">
        <tspan x="0.0" dy="51.40px">Save hard tasks for high energy windows</tspan>
      </text>
      <rect id="ITEM_2_BODY_FRAME" x="-310" y="-20" width="620" height="155" fill="none"/>
    </g>
    <!-- Row 2 - cards at y=400 -->
    <g transform="translate(480.0, 400.0)">
      <rect id="ITEM_3_ACCENT_BG" x="-400" y="-110" width="800" height="245" rx="24" fill="var(--accent-3)" fill-opacity="0.15"/>
      <rect id="ITEM_3_BG" x="-400" y="-110" width="800" height="245" rx="18" fill="var(--panel)" stroke="var(--accent-3)" filter="url(#svgd1628f6f-shadow)" stroke-width="3"/>
      <rect x="-388" y="-98" width="776" height="221" rx="16" fill="url(#svgd1628f6f-myth-card-sheen)" opacity="0.92"/>
      <circle id="ITEM_3_PAD" cx="-330" cy="-40" r="46" fill="var(--icon-pad-bg)" stroke="var(--background)" stroke-width="2" stroke-opacity="0.65" opacity="0.94"/>
      <circle id="ITEM_3_PAD_INNER" cx="-330" cy="-40" r="35.88" fill="var(--accent-3)" fill-opacity="0.22"/>
      <circle cx="-330" cy="-40" r="34" fill="none" stroke="var(--accent-3)" stroke-width="3" stroke-dasharray="6 4"/>
      <g id="ITEM_3_ICON" transform="translate(-358, -68)" data-icon-size="56" stroke-dasharray="6 4">
        <g transform="translate(-15.568571428571431,-13.005714285714284) scale(3.4171428571428573)" vector-effect="non-scaling-stroke" stroke-width="2.38" stroke-linecap="round" stroke-linejoin="round" stroke-opacity="1.0">
          <path d="M11.5 3C6.80558 3 3 6.80558 3 11.5C3 13.1526 3.4716 14.695 4.28755 16" stroke="#f1f5f9" vector-effect="non-scaling-stroke" fill="none"/>
          <path d="M18.7125 16C19.5284 14.695 20 13.1526 20 11.5V9.5H22.5" stroke="#f1f5f9" vector-effect="non-scaling-stroke" fill="none"/>
          <path d="M8 21C6.89543 21 6 20.1046 6 19C6 17.8954 6.89543 17 8 17C9.10457 17 10 17.8954 10 19C10 20.1046 9.10457 21 8 21Z" stroke="#f1f5f9" vector-effect="non-scaling-stroke" fill="none"/>
          <path d="M15 21C13.8954 21 13 20.1046 13 19C13 17.8954 13.8954 17 15 17C16.1046 17 17 17.8954 17 19C17 20.1046 16.1046 21 15 21Z" stroke="#f1f5f9" vector-effect="non-scaling-stroke" fill="none"/>
          <path d="M11.5 3V12" stroke="#f1f5f9" vector-effect="non-scaling-stroke" fill="none"/>
          <path d="M3.5 12H19.5" stroke="#f1f5f9" vector-effect="non-scaling-stroke" fill="none"/>
        </g>
      </g>
      <text id="ITEM_3_HEAD" x="0.0" y="-85.0" text-anchor="middle" font-weight="bold" font-size="28" fill="var(--accent-3)" data-bg-id="ITEM_3_BG" style="font-size: 30px; font-family: Inter, Segoe UI, Kalam, Roboto, Helvetica, Arial, sans-serif; font-weight: 700; letter-spacing:-0.4px;" data-final-font-size="30">
        <tspan x="0.0" dy="37.75px">Family Rhythm</tspan>
      </text>
      <rect id="ITEM_3_HEAD_FRAME" x="-310" y="-85" width="620" height="50" fill="none"/>
      <text id="ITEM_3_BODY" x="0.0" y="-20.0" text-anchor="middle" font-size="22" fill="var(--primary-text)" opacity="0.88" data-bg-id="ITEM_3_BG" style="font-size: 26px; font-family: Inter, Segoe UI, Kalam, Roboto, Helvetica, Arial, sans-serif; font-weight: 400;" data-final-font-size="26">
        <tspan x="0.0" dy="51.40px">Fit habits around household duties</tspan>
      </text>
      <rect id="ITEM_3_BODY_FRAME" x="-310" y="-20" width="620" height="155" fill="none"/>
    </g>
    <g transform="translate(1440.0, 400.0)">
      <rect id="ITEM_4_ACCENT_BG" x="-400" y="-110" width="800" height="245" rx="24" fill="var(--accent-4)" fill-opacity="0.15"/>
      <rect id="ITEM_4_BG" x="-400" y="-110" width="800" height="245" rx="18" fill="var(--panel)" stroke="var(--accent-4)" filter="url(#svgd1628f6f-shadow)" stroke-width="3"/>
      <rect x="-388" y="-98" width="776" height="221" rx="16" fill="url(#svgd1628f6f-myth-card-sheen)" opacity="0.92"/>
      <circle id="ITEM_4_PAD" cx="330" cy="-40" r="46" fill="var(--icon-pad-bg)" stroke="var(--background)" stroke-width="2" stroke-opacity="0.65" opacity="0.94"/>
      <circle id="ITEM_4_PAD_INNER" cx="330" cy="-40" r="35.88" fill="var(--accent-4)" fill-opacity="0.22"/>
      <circle cx="330" cy="-40" r="34" fill="none" stroke="var(--accent-4)" stroke-width="3" stroke-dasharray="6 4"/>
      <g id="ITEM_4_ICON" transform="translate(302, -68)" data-icon-size="56" stroke-dasharray="6 4">
        <g transform="translate(-13.005714285714289,-13.005714285714289) scale(2.562857142857143)">
          <path d="M27.9999 20L15.9999 19L3.99992 20L2.01992 28.8911C1.9104 29.657 2.99521 29.5 3.49992 29.5H28.4999C29.0046 29.5 30.0894 29.657 29.9799 28.8911L27.9999 20Z" fill="#D3D3D3"/>
          <path d="M27 2H5C4.45 2 4 2.45 4 3V19.99H28V3C28 2.45 27.55 2 27 2Z" fill="#7167A4"/>
          <path d="M5 18.74V3.25C5 3.11 5.11 3 5.25 3H26.75C26.89 3 27 3.11 27 3.25V18.74C27 18.88 26.89 18.99 26.75 18.99H5.25C5.11 18.99 5 18.88 5 18.74Z" fill="#26C9FC"/>
          <path fill-rule="evenodd" clip-rule="evenodd" d="M27.27 21.28L27.99 24.53C28.04 24.77 27.86 24.99 27.62 24.99H4.37997C4.13997 24.99 3.95997 24.76 4.00997 24.53L4.72997 21.28C4.76997 21.11 4.91997 20.99 5.09997 20.99H26.9C27.08 20.99 27.23 21.11 27.27 21.28ZM8.18555 24.5H6.75344L6.87845 23.75H8.2793L8.18555 24.5ZM10.1241 24.5H8.68944L8.7832 23.75H10.1866L10.1241 24.5ZM11.9623 24.5H10.6259L10.6884 23.75H11.9936L11.9623 24.5ZM13.8123 24.5H12.4627L12.494 23.75H13.8435L13.8123 24.5ZM15.75 24.5H14.3127L14.344 23.75H15.75V24.5ZM17.6873 24.5H16.25V23.75H17.656L17.6873 24.5ZM19.5373 24.5H18.1877L18.1565 23.75H19.506L19.5373 24.5ZM21.3741 24.5H20.0377L20.0064 23.75H21.3116L21.3741 24.5ZM23.3106 24.5H21.8759L21.8134 23.75H23.2168L23.3106 24.5ZM25.2466 24.5H23.8145L23.7207 23.75H25.1216L25.2466 24.5ZM27 24.5H25.7535L25.6284 23.75H26.875L27 24.5ZM26.6667 22.5L26.7917 23.25H25.5451L25.4201 22.5H26.6667ZM26.5 21.5L26.5833 22H25.3368L25.2535 21.5H26.5ZM23.4395 21.5H24.7466L24.8299 22H23.5019L23.4395 21.5ZM21.6259 21.5H22.9356L22.9981 22H21.6675L21.6259 21.5ZM19.9127 21.5H21.1241L21.1658 22H19.9335L19.9127 21.5ZM18.0627 21.5H19.4123L19.4331 22H18.0835L18.0627 21.5ZM16.25 21.5H17.5623L17.5831 22H16.25V21.5ZM14.4377 21.5H15.75V22H14.4169L14.4377 21.5ZM12.5877 21.5H13.9373L13.9164 22H12.5669L12.5877 21.5ZM10.8759 21.5H12.0873L12.0665 22H10.8342L10.8759 21.5ZM9.06444 21.5H10.3741L10.3325 22H9.00195L9.06444 21.5ZM7.25344 21.5H8.56055L8.49805 22H7.17012L7.25344 21.5ZM5.5 21.5H6.74655L6.66322 22H5.41667L5.5 21.5ZM5.20834 23.25L5.33334 22.5H6.57989L6.45489 23.25H5.20834ZM5 24.5L5.12501 23.75H6.37155L6.24655 24.5H5ZM25.0382 23.25L24.9132 22.5H23.5644L23.6582 23.25H25.0382ZM23.1543 23.25L23.0606 22.5H21.7092L21.7717 23.25H23.1543ZM21.27 23.25L21.2075 22.5H19.9544L19.9856 23.25H21.27ZM19.4852 23.25L19.4539 22.5H18.1044L18.1356 23.25H19.4852ZM17.6352 23.25L17.6039 22.5H16.25V23.25H17.6352ZM7.08678 22.5L6.96178 23.25H8.3418L8.43555 22.5H7.08678ZM8.93945 22.5L8.8457 23.25H10.2283L10.2908 22.5H8.93945ZM10.7925 22.5L10.73 23.25H12.0144L12.0456 22.5H10.7925ZM12.5461 22.5L12.5148 23.25H13.8644L13.8956 22.5H12.5461ZM14.3961 22.5L14.3648 23.25H15.75V22.5H14.3961Z" fill="#9B9B9B"/>
          <path d="M29.09 29C29.44 29 29.74 28.8 29.89 28.51L29.98 28.89L29.9834 28.9133C29.9921 28.9736 30 29.0279 30 29.09C30 29.59 29.59 30 29.09 30H2.91C2.41 30 2 29.59 2 29.09C2 29.02 2.01 28.96 2.03 28.9L2.11 28.52C2.26 28.8 2.56 29 2.91 29H29.09Z" fill="#9B9B9B"/>
          <path d="M10.82 27.99H21.18C21.34 27.99 21.46 27.84 21.42 27.68L21.04 26.18C21.01 26.07 20.91 25.99 20.8 25.99H11.2C11.09 25.99 10.99 26.07 10.96 26.18L10.58 27.68C10.54 27.84 10.66 27.99 10.82 27.99Z" fill="#9B9B9B"/>
        </g>
      </g>
      <text id="ITEM_4_HEAD" x="0.0" y="-85.0" text-anchor="middle" font-weight="bold" font-size="28" fill="var(--accent-4)" data-bg-id="ITEM_4_BG" style="font-size: 30px; font-family: Inter, Segoe UI, Kalam, Roboto, Helvetica, Arial, sans-serif; font-weight: 700; letter-spacing:-0.4px;" data-final-font-size="30">
        <tspan x="0.0" dy="37.75px">Transition Cue</tspan>
      </text>
      <rect id="ITEM_4_HEAD_FRAME" x="-310" y="-85" width="620" height="50" fill="none"/>
      <text id="ITEM_4_BODY" x="0.0" y="-20.0" text-anchor="middle" font-size="22" fill="var(--primary-text)" opacity="0.88" data-bg-id="ITEM_4_BG" style="font-size: 26px; font-family: Inter, Segoe UI, Kalam, Roboto, Helvetica, Arial, sans-serif; font-weight: 400;" data-final-font-size="26">
        <tspan x="0.0" dy="51.40px">Use finishing work as the trigger signal</tspan>
      </text>
      <rect id="ITEM_4_BODY_FRAME" x="-310" y="-20" width="620" height="155" fill="none"/>
    </g>
    <!-- Row 3 - cards at y=670 -->
    <g transform="translate(480.0, 670.0)">
      <rect id="ITEM_5_ACCENT_BG" x="-400" y="-110" width="800" height="245" rx="24" fill="var(--accent-5)" fill-opacity="0.15"/>
      <rect id="ITEM_5_BG" x="-400" y="-110" width="800" height="245" rx="18" fill="var(--panel)" stroke="var(--accent-5)" filter="url(#svgd1628f6f-shadow)" stroke-width="3"/>
      <rect x="-388" y="-98" width="776" height="221" rx="16" fill="url(#svgd1628f6f-myth-card-sheen)" opacity="0.92"/>
      <circle id="ITEM_5_PAD" cx="-330" cy="-40" r="46" fill="var(--icon-pad-bg)" stroke="var(--background)" stroke-width="2" stroke-opacity="0.65" opacity="0.94"/>
      <circle id="ITEM_5_PAD_INNER" cx="-330" cy="-40" r="35.88" fill="var(--accent-5)" fill-opacity="0.22"/>
      <circle cx="-330" cy="-40" r="34" fill="none" stroke="var(--accent-5)" stroke-width="3" stroke-dasharray="6 4"/>
      <g id="ITEM_5_ICON" transform="translate(-358, -68)" data-icon-size="56" stroke-dasharray="6 4">
        <g transform="translate(-11.935999999999998,-12.872000000000003) scale(0.156)" vector-effect="non-scaling-stroke" fill="#f1f5f9" fill-opacity="1.0" stroke="none">
          <path fill="#f1f5f9" d="M121.4 33v30h78.1V33zm11 48c-16.4 16.58-42.95 46.2-42.95 71v39H231.5v-39c0-24.8-26.5-54.42-43-71zM89.45 209v16H231.5v-16zm0 34v16H231.5v-16zm0 34v16H231.5v-16zm0 34v170.2c43.05 12.7 98.95 12.7 142.05 0V311zm224.85 34l14.3 142H345l-6.9-118.5l18-1L363 487h45.3l14.3-142z" vector-effect="non-scaling-stroke" stroke="none"/>
        </g>
      </g>
      <text id="ITEM_5_HEAD" x="0.0" y="-85.0" text-anchor="middle" font-weight="bold" font-size="28" fill="var(--accent-5)" data-bg-id="ITEM_5_BG" style="font-size: 30px; font-family: Inter, Segoe UI, Kalam, Roboto, Helvetica, Arial, sans-serif; font-weight: 700; letter-spacing:-0.4px;" data-final-font-size="30">
        <tspan x="0.0" dy="37.75px">Protected Slot</tspan>
      </text>
      <rect id="ITEM_5_HEAD_FRAME" x="-310" y="-85" width="620" height="50" fill="none"/>
      <text id="ITEM_5_BODY" x="0.0" y="-20.0" text-anchor="middle" font-size="22" fill="var(--primary-text)" opacity="0.88" data-bg-id="ITEM_5_BG" style="font-size: 26px; font-family: Inter, Segoe UI, Kalam, Roboto, Helvetica, Arial, sans-serif; font-weight: 400;" data-final-font-size="26">
        <tspan x="0.0" dy="51.40px">Complete simple tasks before chaos starts</tspan>
      </text>
      <rect id="ITEM_5_BODY_FRAME" x="-310" y="-20" width="620" height="155" fill="none"/>
    </g>
  </g>
</svg>
