<?xml version='1.0' encoding='utf-8'?>
<svg xmlns="http://www.w3.org/2000/svg" width="1920" height="1080" viewBox="0 0 1920 1080" data-theme="dark">
  <style>
        @font-face {
            font-family: 'Inter';
            src: url('assets/fonts/Inter-Regular.ttf') format('truetype');
            font-weight: 400;
            font-style: normal;
            font-display: swap;
        }
        @font-face {
            font-family: 'Inter';
            src: url('assets/fonts/Inter-Bold.ttf') format('truetype');
            font-weight: 600;
            font-style: normal;
            font-display: swap;
        }
        @font-face {
            font-family: 'Inter';
            src: url('assets/fonts/Inter-Bold.ttf') format('truetype');
            font-weight: 800;
            font-style: normal;
            font-display: swap;
        }
        
:root {
    --background: #0f172a;
    --panel: #1e293b;
    --primary-text: #f1f5f9;
    --muted-text: #94a3b8;
    --inverse-text: #0f172a;
    --border: #334155;
    --shadow-color: #000000;
    --icon-pad-bg: #1e293b;
    --art-glow: #7dd3fc;
    --art-glow-opacity: 0.18;
    --art-sheen: #ffffff;
    --art-sheen-opacity: 0.18;
    --art-shadow: #000000;
    --art-shadow-opacity: 0.28;
    --art-muted-line: #64748b;
    --art-panel-tint: #1e293b;
    --font-family: 'Inter', 'Segoe UI', 'Kalam', Roboto, Helvetica, Arial, sans-serif;
    --radius-xl: 16px;
    --font-family-headline: 'Inter', 'Segoe UI', 'Kalam', Roboto, Helvetica, Arial, sans-serif;
    --font-family-body: 'Inter', 'Segoe UI', 'Kalam', Roboto, Helvetica, Arial, sans-serif;
    --font-heading: 'Inter', 'Segoe UI', 'Kalam', Roboto, Helvetica, Arial, sans-serif;
    --font-body: 'Inter', 'Segoe UI', 'Kalam', Roboto, Helvetica, Arial, sans-serif;
    --font-size-h1: 56px;
    --font-size-h2: 40px;
    --font-size-h3: 28px;
    --font-size-body: 24px;
    --font-size-caption: 18px;
    --secondary-text: var(--muted-text);
    --panel-border: var(--border);
    --font-weight-normal: 400;
    --font-weight-medium: 500;
    --font-weight-semibold: 600;
    --font-weight-bold: 700;
    --spacing-gutter-pct: 0.07;
    --spacing-top-pct: 0.15;
    --spacing-bottom-pct: 0.07;
    --spacing-title-y-pct: 0.055;
    --accent-1: #fbbf24;
    --accent-2: #fb923c;
    --accent-3: #f87171;
    --accent-4: #a3e635;
    --accent-5: #4ade80;
    --accent-6: #d4a574;
}
:root[data-theme="dark"] {
    --background: #0f172a;
    --panel: #1e293b;
    --primary-text: #f1f5f9;
    --muted-text: #94a3b8;
    --inverse-text: #0f172a;
    --border: #334155;
    --shadow-color: #000000;
    --icon-pad-bg: #1e293b;
    --art-glow: #7dd3fc;
    --art-glow-opacity: 0.18;
    --art-sheen: #ffffff;
    --art-sheen-opacity: 0.18;
    --art-shadow: #000000;
    --art-shadow-opacity: 0.28;
    --art-muted-line: #64748b;
    --art-panel-tint: #1e293b;
    --accent-1: #fbbf24;
    --accent-2: #fb923c;
    --accent-3: #f87171;
    --accent-4: #a3e635;
    --accent-5: #4ade80;
    --accent-6: #d4a574;
}
:root[data-theme="light"] {
    --background: #f8fafc;
    --panel: #ffffff;
    --primary-text: #0f172a;
    --muted-text: #64748b;
    --inverse-text: #ffffff;
    --border: #e2e8f0;
    --shadow-color: #000000;
    --icon-pad-bg: #1e293b;
    --art-glow: #0891b2;
    --art-glow-opacity: 0.10;
    --art-sheen: #ffffff;
    --art-sheen-opacity: 0.34;
    --art-shadow: #0f172a;
    --art-shadow-opacity: 0.14;
    --art-muted-line: #94a3b8;
    --art-panel-tint: #f1f5f9;
    --accent-1: #d97706;
    --accent-2: #ea580c;
    --accent-3: #dc2626;
    --accent-4: #65a30d;
    --accent-5: #16a34a;
    --accent-6: #92400e;
}</style>
  <rect x="0" y="0" width="1.92E+3" height="1.08E+3" fill="#252a34" stroke="none" id="programmatic_background"/>
  <line id="HEADER_DECOR" x1="960.0" x2="1080.0" y1="135.0" y2="135.0" stroke="var(--accent-1)" stroke-width="6" stroke-linecap="round"/>
  <defs>
    <pattern id="svgd8223180-napkin-hatch" patternUnits="userSpaceOnUse" width="12" height="12">
      <path d="M -3 12 L 12 -3 M 0 15 L 15 0" fill="none" stroke="var(--primary-text)" stroke-width="1" stroke-opacity="0.05"/>
    </pattern>
    <filter id="svgd8223180-soft-shadow" x="-30%" y="-30%" width="160%" height="160%">
      <feDropShadow dx="0" dy="3" stdDeviation="6" flood-color="#000000" flood-opacity="0.20"/>
    </filter>
    <radialGradient id="svgd8223180-universal-edge-vignette" cx="50%" cy="50%" r="72%">
      <stop offset="0%" stop-color="var(--background)" stop-opacity="0"/>
      <stop offset="72%" stop-color="var(--background)" stop-opacity="0.12"/>
      <stop offset="100%" stop-color="var(--primary-text)" stop-opacity="0.08"/>
    </radialGradient>
    <linearGradient id="svgd8223180-universal-surface-sheen" x1="0%" y1="0%" x2="100%" y2="100%">
      <stop offset="0%" stop-color="var(--art-sheen)" stop-opacity="var(--art-sheen-opacity)"/>
      <stop offset="46%" stop-color="var(--art-sheen)" stop-opacity="0.035"/>
      <stop offset="100%" stop-color="var(--art-panel-tint)" stop-opacity="0.14"/>
    </linearGradient>
    <radialGradient id="svgd8223180-universal-icon-aura" cx="50%" cy="42%" r="64%">
      <stop offset="0%" stop-color="var(--art-glow)" stop-opacity="var(--art-glow-opacity)"/>
      <stop offset="100%" stop-color="var(--background)" stop-opacity="0"/>
    </radialGradient>
    <filter id="svgd8223180-text-glow" x="-20%" y="-20%" width="140%" height="140%">
      <feDropShadow dx="0" dy="0" stdDeviation="2" flood-color="#000000" flood-opacity="0.4"/>
    </filter>
    <filter id="svgd8223180-shadow" x="-30%" y="-30%" width="160%" height="160%">
      <feDropShadow dx="0" dy="2" stdDeviation="3" flood-color="#000000" flood-opacity="0.08"/>
      <feDropShadow dx="0" dy="6" stdDeviation="10" flood-color="#000000" flood-opacity="0.12"/>
    </filter>
    <marker id="svgd8223180-arrowhead" markerWidth="10" markerHeight="7" refX="9" refY="3.5" orient="auto" markerUnits="strokeWidth">
      <polygon points="0 0, 10 3.5, 0 7" fill="var(--muted-text)" opacity="0.6"/>
    </marker>
  </defs>
  <rect id="CANVAS_BG" width="100%" height="100%" fill="var(--background)"/>
  <rect width="100%" height="100%" fill="url(#svgd8223180-napkin-hatch)"/>
  <rect id="UNIVERSAL_EDGE_VIGNETTE" width="100%" height="100%" fill="url(#svgd8223180-universal-edge-vignette)" opacity="0.62"/>
  <text id="TITLE" x="960.0" y="59" text-anchor="middle" font-size="56" font-weight="800" fill="#f1f5f9" style="font-size: 60px; font-family: Inter, Segoe UI, Kalam, Roboto, Helvetica, Arial, sans-serif; font-weight: 700; letter-spacing:-1.2px;" data-final-font-size="60">
    <tspan x="960.0" dy="68.00px">The Deliberate Practice Loop</tspan>
  </text>
  <rect id="TITLE_FRAME" x="134" y="59" width="1652" height="103" fill="none"/>
  <line x1="687.0" y1="434.0" x2="768.0" y2="434.0" stroke="var(--muted-text)" stroke-width="4" stroke-dasharray="10 9" opacity="0.8"/>
  <circle cx="727.5" cy="434.0" r="34" fill="var(--panel)" stroke="var(--muted-text)" stroke-width="2"/>
  <text x="727.5" y="444.0" text-anchor="middle" font-size="34" font-weight="900" fill="var(--muted-text)">VS</text>
  <line x1="1152.0" y1="434.0" x2="1233.0" y2="434.0" stroke="var(--muted-text)" stroke-width="4" stroke-dasharray="10 9" opacity="0.8"/>
  <circle cx="1192.5" cy="434.0" r="34" fill="var(--panel)" stroke="var(--muted-text)" stroke-width="2"/>
  <text x="1192.5" y="444.0" text-anchor="middle" font-size="34" font-weight="900" fill="var(--muted-text)">VS</text>
  <line x1="882.0" y1="824.0" x2="1038.0" y2="824.0" stroke="var(--muted-text)" stroke-width="4" stroke-dasharray="10 9" opacity="0.8"/>
  <circle cx="960.0" cy="824.0" r="34" fill="var(--panel)" stroke="var(--muted-text)" stroke-width="2"/>
  <text x="960.0" y="834.0" text-anchor="middle" font-size="34" font-weight="900" fill="var(--muted-text)">VS</text>
  <g transform="translate(495.0, 280.0)" filter="url(#svgd8223180-soft-shadow)">
    <rect id="ITEM_1_BG" x="-200.0" y="0" width="400.0" height="360" rx="26" fill="var(--panel)" fill-opacity="0.95" stroke="var(--accent-1)" stroke-width="3"/>
    <rect x="-184.0" y="12" width="368.0" height="8" rx="4" fill="var(--accent-1)" fill-opacity="0.55"/>
    <circle id="ITEM_1_PAD" cx="0" cy="74" r="46" fill="var(--icon-pad-bg)" stroke="var(--primary-text)" opacity="0.9" fill-opacity="0.9" stroke-width="2"/>
    <circle id="ITEM_1_PAD_INNER" cx="0" cy="74" r="35.88" fill="var(--accent-3)" fill-opacity="0.22"/>
    <circle cx="0" cy="74" r="36" fill="none" stroke="var(--accent-1)" stroke-width="3" stroke-dasharray="6 4"/>
    <g id="ITEM_1_ICON" transform="translate(-34, 40)" data-icon-size="68" stroke-dasharray="6 4">
      <g transform="translate(-6.642831858407086,-6.325309734513278) scale(2.540176991150443)">
        <path d="M15.8002 23.5725C15.0102 22.7925 14.9502 21.5225 15.7002 20.7125C15.7202 20.6925 15.7402 20.6625 15.7602 20.6425C15.7702 20.6325 15.7802 20.6225 15.7902 20.6125C16.5002 19.9225 17.6902 19.9625 18.4002 20.6525L18.4402 20.6925C18.5902 20.8425 18.8302 20.8425 18.9802 20.6925L21.2102 18.4625C21.3502 18.2725 21.5002 18.1025 21.6602 17.9325C21.8702 17.7225 22.0502 17.5025 22.2202 17.2725C23.0502 16.1225 22.8702 14.3425 21.8602 13.3425L18.5102 10.0125C17.4802 8.9925 15.8602 8.8325 14.6802 9.6625C14.5702 9.7425 14.4702 9.8425 14.3702 9.9225L11.2802 13.0125C11.1302 13.1625 11.1302 13.4125 11.2802 13.5525C11.9702 14.2325 12.0202 15.4025 11.3602 16.1125C11.3402 16.1325 11.3202 16.1525 11.3002 16.1725C11.2802 16.1925 11.2602 16.2125 11.2302 16.2325C10.4202 16.9825 9.15016 16.9325 8.37016 16.1525C8.28016 16.0625 8.09016 15.8825 7.87016 15.6525C7.59016 15.3725 7.14016 15.3725 6.86016 15.6525L4.67016 17.8425C4.67016 17.8425 4.67016 17.8425 4.66016 17.8525L3.63016 18.8925C3.23016 19.3025 2.88016 19.7425 2.60016 20.2225C1.55016 21.9925 1.92016 24.2625 3.38016 25.7125L6.33016 28.6425C7.84016 30.1425 10.2102 30.4125 11.9902 29.2425C12.3602 28.9925 12.7202 28.7025 13.0502 28.3725L13.2802 28.1425L14.1602 27.2625C14.1702 27.2525 14.1902 27.2425 14.2002 27.2325L16.3502 25.0825C16.6302 24.8025 16.6302 24.3525 16.3502 24.0725C16.3402 24.0625 16.3302 24.0525 16.3202 24.0425C16.0702 23.8525 15.8902 23.6725 15.8002 23.5725Z" fill="#8C5543"/>
        <path d="M10.8001 23.1927L8.80008 21.2027C8.52008 20.9227 8.07008 20.9227 7.79008 21.2027C7.51008 21.4827 7.51008 21.9327 7.79008 22.2127L9.79008 24.2027C10.0701 24.4827 10.5201 24.4827 10.8001 24.2027C11.0801 23.9227 11.0701 23.4627 10.8001 23.1927Z" fill="#F3C07B"/>
        <path d="M24.53 3.25266C24.6136 3.25266 24.6934 3.23665 24.7665 3.20754L25.2519 3.70618L25.6083 3.35925L25.121 2.85864C25.1526 2.78291 25.17 2.69982 25.17 2.61266C25.17 2.25919 24.8835 1.97266 24.53 1.97266C24.1766 1.97266 23.89 2.25919 23.89 2.61266C23.89 2.96612 24.1766 3.25266 24.53 3.25266ZM23.67 4.46262C23.7508 4.46262 23.8281 4.44765 23.8993 4.42034L24.3819 4.91614L24.7383 4.56921L24.258 4.07577C24.2915 3.99813 24.31 3.91254 24.31 3.82262C24.31 3.46915 24.0235 3.18262 23.67 3.18262C23.3166 3.18262 23.03 3.46915 23.03 3.82262C23.03 4.17608 23.3166 4.46262 23.67 4.46262ZM28.4394 6.30037L28.9232 6.80406C28.9937 6.77733 29.0701 6.7627 29.15 6.7627C29.5035 6.7627 29.79 7.04923 29.79 7.4027C29.79 7.75616 29.5035 8.0427 29.15 8.0427C28.7965 8.0427 28.51 7.75616 28.51 7.4027C28.51 7.31186 28.5289 7.22544 28.5631 7.14717L28.0806 6.64494L28.4394 6.30037ZM27.6832 7.624L27.1994 7.12032L26.8407 7.46488L27.3231 7.96712C27.2889 8.04539 27.27 8.1318 27.27 8.22264C27.27 8.5761 27.5566 8.86264 27.91 8.86264C28.2635 8.86264 28.55 8.5761 28.55 8.22264C28.55 7.86918 28.2635 7.58264 27.91 7.58264C27.8301 7.58264 27.7537 7.59727 27.6832 7.624ZM24.4401 5.71265L26.1601 7.41265L18.2901 16.1626C18.0301 16.4426 17.6001 16.4626 17.3301 16.1926L15.7301 14.6126C15.4601 14.3426 15.4701 13.9026 15.7501 13.6526L24.4401 5.71265ZM8.72005 25.1827L6.81005 23.2927C6.63005 23.1127 6.34005 23.1327 6.18005 23.3327L3.78005 26.4827C3.65005 26.6527 3.67005 26.8827 3.82005 27.0327L5.02005 28.2227C5.17005 28.3727 5.41005 28.3827 5.57005 28.2527L8.69005 25.8127C8.88005 25.6527 8.90005 25.3627 8.72005 25.1827ZM12.315 18.2127C12.32 18.2252 12.325 18.2377 12.33 18.2527C12.43 18.5227 12.31 18.8427 12.05 18.9827C11.75 19.1427 11.38 19.0427 11.21 18.7427C11.08 18.5127 11.11 18.2327 11.27 18.0427C11.08 17.9727 10.85 17.9827 10.66 18.0927L9.36002 18.8227C8.68002 19.2027 7.83002 18.9627 7.45002 18.2927L7.39002 18.1927C7.38002 18.1927 7.38002 18.1827 7.38002 18.1827C7.22002 17.8927 7.32002 17.5227 7.62002 17.3527C7.92002 17.1927 8.29002 17.2927 8.46002 17.5927C8.60002 17.8327 8.55002 18.1227 8.38002 18.3127C8.58002 18.3927 8.82002 18.3927 9.03002 18.2727L10.33 17.5427C11.01 17.1627 11.86 17.4027 12.24 18.0727L12.3 18.1727C12.305 18.1877 12.31 18.2002 12.315 18.2127ZM13.7101 19.6027C13.7251 19.6077 13.7376 19.6127 13.7501 19.6177L13.7501 19.6177C13.7626 19.6227 13.7751 19.6277 13.7901 19.6327L13.8901 19.6927C14.5701 20.0627 14.8201 20.9127 14.4601 21.5927L13.7501 22.9027C13.6401 23.1127 13.6301 23.3527 13.7201 23.5527C13.9101 23.3727 14.2001 23.3327 14.4401 23.4627C14.7401 23.6227 14.8501 24.0027 14.6901 24.3027C14.5301 24.6027 14.1601 24.7127 13.8601 24.5527C13.8601 24.5527 13.8501 24.5527 13.8501 24.5427L13.7501 24.4827C13.0701 24.1127 12.8201 23.2627 13.1801 22.5827L13.8901 21.2727C14.0001 21.0727 14.0001 20.8527 13.9301 20.6627C13.7401 20.8227 13.4701 20.8627 13.2301 20.7327C12.9301 20.5727 12.8201 20.1927 12.9801 19.8927C13.1201 19.6327 13.4301 19.5127 13.7101 19.6027Z" fill="#321B41"/>
        <path d="M28.6902 4.55257L27.2902 3.16257C26.7302 2.60257 25.7903 2.69257 25.3503 3.36257L24.2202 5.05257C24.0702 5.28257 24.1002 5.58257 24.2902 5.78257L26.0903 7.56257C26.2903 7.75257 26.5903 7.78257 26.8203 7.63257L28.5003 6.49257C29.1603 6.04257 29.2502 5.11257 28.6902 4.55257Z" fill="#8C5543"/>
        <path fill-rule="evenodd" clip-rule="evenodd" d="M3.97681 6.86558C4.17208 6.67032 4.48866 6.67032 4.68392 6.86558L23.44 25.6216C23.6352 25.8169 23.6352 26.1335 23.44 26.3287C23.2447 26.524 22.9281 26.524 22.7329 26.3287L3.97681 7.57268C3.78155 7.37742 3.78155 7.06084 3.97681 6.86558Z" fill="#E1ADA0"/>
        <path fill-rule="evenodd" clip-rule="evenodd" d="M7.16916 6.57501L26.9735 26.3266C27.1688 26.5218 27.1688 26.8384 26.9735 27.0337C26.7782 27.229 26.4617 27.229 26.2664 27.0337L6.4884 7.32821C6.13997 6.98106 5.55453 7.06862 5.17954 7.38689C4.91688 7.60982 4.59491 7.77105 4.2628 7.66885C3.55115 7.44987 2.85142 6.29259 3.15966 6.18983C3.31512 6.138 4.06991 6.00915 4.77991 5.89415C5.63757 5.75525 6.51093 6.00791 7.16916 6.57501Z" fill="#503344"/>
        <path fill-rule="evenodd" clip-rule="evenodd" d="M23.4226 24.2063L21.6548 22.4386L22.3619 21.7315L24.1297 23.4992C24.3249 23.6945 24.3249 24.0111 24.1297 24.2063C23.9344 24.4016 23.6178 24.4016 23.4226 24.2063Z" fill="#F3C07B"/>
        <path fill-rule="evenodd" clip-rule="evenodd" d="M25.3912 26.1609L22.8206 23.5898L23.5277 22.8827L26.0983 25.4538L25.3912 26.1609Z" fill="#321B41"/>
        <path d="M23.3822 25.4726C23.5613 25.2804 23.3222 24.9079 23.1106 24.6228C23.0225 24.5041 23.0326 24.3398 23.1372 24.2353C23.2524 24.1202 23.4388 24.1195 23.5549 24.2338L24.871 25.5302C24.9778 25.6353 24.9784 25.8073 24.8725 25.9132L23.7799 27.006C23.6758 27.1101 23.507 27.1101 23.4029 27.006L22.1124 25.7155C21.9924 25.5955 21.9924 25.4011 22.1124 25.2811C22.2279 25.1656 22.4131 25.1618 22.5453 25.2578C22.8299 25.4644 23.2083 25.6591 23.3822 25.4726Z" fill="url(#paint0_linear_1_88)"/>
        <path d="M23.3822 25.4726C23.5613 25.2804 23.3222 24.9079 23.1106 24.6228C23.0225 24.5041 23.0326 24.3398 23.1372 24.2353C23.2524 24.1202 23.4388 24.1195 23.5549 24.2338L24.871 25.5302C24.9778 25.6353 24.9784 25.8073 24.8725 25.9132L23.7799 27.006C23.6758 27.1101 23.507 27.1101 23.4029 27.006L22.1124 25.7155C21.9924 25.5955 21.9924 25.4011 22.1124 25.2811C22.2279 25.1656 22.4131 25.1618 22.5453 25.2578C22.8299 25.4644 23.2083 25.6591 23.3822 25.4726Z" fill="url(#paint1_linear_1_88)"/>
        <path d="M23.3822 25.4726C23.5613 25.2804 23.3222 24.9079 23.1106 24.6228C23.0225 24.5041 23.0326 24.3398 23.1372 24.2353C23.2524 24.1202 23.4388 24.1195 23.5549 24.2338L24.871 25.5302C24.9778 25.6353 24.9784 25.8073 24.8725 25.9132L23.7799 27.006C23.6758 27.1101 23.507 27.1101 23.4029 27.006L22.1124 25.7155C21.9924 25.5955 21.9924 25.4011 22.1124 25.2811C22.2279 25.1656 22.4131 25.1618 22.5453 25.2578C22.8299 25.4644 23.2083 25.6591 23.3822 25.4726Z" fill="url(#paint2_linear_1_88)"/>
        <path d="M23.3822 25.4726C23.5613 25.2804 23.3222 24.9079 23.1106 24.6228C23.0225 24.5041 23.0326 24.3398 23.1372 24.2353C23.2524 24.1202 23.4388 24.1195 23.5549 24.2338L24.871 25.5302C24.9778 25.6353 24.9784 25.8073 24.8725 25.9132L23.7799 27.006C23.6758 27.1101 23.507 27.1101 23.4029 27.006L22.1124 25.7155C21.9924 25.5955 21.9924 25.4011 22.1124 25.2811C22.2279 25.1656 22.4131 25.1618 22.5453 25.2578C22.8299 25.4644 23.2083 25.6591 23.3822 25.4726Z" fill="url(#paint3_linear_1_88)"/>
        <path d="M23.3822 25.4726C23.5613 25.2804 23.3222 24.9079 23.1106 24.6228C23.0225 24.5041 23.0326 24.3398 23.1372 24.2353C23.2524 24.1202 23.4388 24.1195 23.5549 24.2338L24.871 25.5302C24.9778 25.6353 24.9784 25.8073 24.8725 25.9132L23.7799 27.006C23.6758 27.1101 23.507 27.1101 23.4029 27.006L22.1124 25.7155C21.9924 25.5955 21.9924 25.4011 22.1124 25.2811C22.2279 25.1656 22.4131 25.1618 22.5453 25.2578C22.8299 25.4644 23.2083 25.6591 23.3822 25.4726Z" fill="#321B41"/>
        <circle cx="23.916" cy="25.9189" r="0.382324" fill="#FFEC56"/>
      </g>
    </g>
    <text id="ITEM_1_HEAD" x="0.0" y="138.0" text-anchor="middle" font-size="44" font-weight="800" fill="var(--accent-3)" data-bg-id="ITEM_1_BG" fill-opacity="1.0" stroke="none" style="font-size: 30px; font-family: Inter, Segoe UI, Kalam, Roboto, Helvetica, Arial, sans-serif; font-weight: 700; letter-spacing:-0.4px;" data-final-font-size="30">
      <tspan x="0.0" dy="42.25px">Attempt Task</tspan>
    </text>
    <rect id="ITEM_1_HEAD_FRAME" x="-165.0" y="138" width="330.0" height="68" fill="none"/>
    <text id="ITEM_1_BODY" x="0.0" y="206.0" text-anchor="middle" font-size="27" fill="var(--primary-text)" data-bg-id="ITEM_1_BG" style="font-size: 26px; font-family: Inter, Segoe UI, Kalam, Roboto, Helvetica, Arial, sans-serif; font-weight: 400;" data-final-font-size="26">
      <tspan x="0.0" dy="39.64px">Perform a specific action</tspan>
      <tspan x="0.0" dy="29.90px">near current limits</tspan>
    </text>
    <rect id="ITEM_1_BODY_FRAME" x="-190.0" y="206" width="380" height="154" fill="none"/>
  </g>
  <g transform="translate(960.0, 280.0)" filter="url(#svgd8223180-soft-shadow)">
    <rect id="ITEM_2_BG" x="-200.0" y="0" width="400.0" height="360" rx="26" fill="var(--panel)" fill-opacity="0.95" stroke="var(--accent-2)" stroke-width="3"/>
    <rect x="-184.0" y="12" width="368.0" height="8" rx="4" fill="var(--accent-2)" fill-opacity="0.55"/>
    <circle id="ITEM_2_PAD" cx="0" cy="74" r="46" fill="var(--icon-pad-bg)" stroke="var(--primary-text)" opacity="0.9" fill-opacity="0.9" stroke-width="2"/>
    <circle id="ITEM_2_PAD_INNER" cx="0" cy="74" r="35.88" fill="var(--accent-4)" fill-opacity="0.22"/>
    <circle cx="0" cy="74" r="36" fill="none" stroke="var(--accent-2)" stroke-width="3" stroke-dasharray="6 4"/>
    <g id="ITEM_2_ICON" transform="translate(-34, 40)" data-icon-size="68" stroke-dasharray="6 4">
      <g transform="translate(-4.920677966101698,-4.920677966101696) scale(3.243389830508475)" vector-effect="non-scaling-stroke" stroke-width="2.53" stroke-linecap="round" stroke-linejoin="round" stroke-opacity="1.0">
        <rect width="20" height="14" x="2" y="3" rx="2" vector-effect="non-scaling-stroke" fill="none" stroke="#f1f5f9"/>
        <line x1="8" x2="16" y1="21" y2="21" vector-effect="non-scaling-stroke" fill="none" stroke="#f1f5f9"/>
        <line x1="12" x2="12" y1="17" y2="21" vector-effect="non-scaling-stroke" fill="none" stroke="#f1f5f9"/>
      </g>
    </g>
    <text id="ITEM_2_HEAD" x="0.0" y="138.0" text-anchor="middle" font-size="44" font-weight="800" fill="var(--accent-4)" data-bg-id="ITEM_2_BG" fill-opacity="1.0" stroke="none" style="font-size: 30px; font-family: Inter, Segoe UI, Kalam, Roboto, Helvetica, Arial, sans-serif; font-weight: 700; letter-spacing:-0.4px;" data-final-font-size="30">
      <tspan x="0.0" dy="42.25px">Compare Standard</tspan>
    </text>
    <rect id="ITEM_2_HEAD_FRAME" x="-165.0" y="138" width="330.0" height="68" fill="none"/>
    <text id="ITEM_2_BODY" x="0.0" y="206.0" text-anchor="middle" font-size="27" fill="var(--primary-text)" data-bg-id="ITEM_2_BG" style="font-size: 26px; font-family: Inter, Segoe UI, Kalam, Roboto, Helvetica, Arial, sans-serif; font-weight: 400;" data-final-font-size="26">
      <tspan x="0.0" dy="39.64px">Measure output against a clear</tspan>
      <tspan x="0.0" dy="29.90px">expert benchmark</tspan>
    </text>
    <rect id="ITEM_2_BODY_FRAME" x="-190.0" y="206" width="380" height="154" fill="none"/>
  </g>
  <g transform="translate(1425.0, 280.0)" filter="url(#svgd8223180-soft-shadow)">
    <rect id="ITEM_3_BG" x="-200.0" y="0" width="400.0" height="360" rx="26" fill="var(--panel)" fill-opacity="0.95" stroke="var(--accent-3)" stroke-width="3"/>
    <rect x="-184.0" y="12" width="368.0" height="8" rx="4" fill="var(--accent-3)" fill-opacity="0.55"/>
    <circle id="ITEM_3_PAD" cx="0" cy="74" r="46" fill="var(--icon-pad-bg)" stroke="var(--primary-text)" opacity="0.9" fill-opacity="0.9" stroke-width="2"/>
    <circle id="ITEM_3_PAD_INNER" cx="0" cy="74" r="35.88" fill="var(--accent-5)" fill-opacity="0.22"/>
    <circle cx="0" cy="74" r="36" fill="none" stroke="var(--accent-3)" stroke-width="3" stroke-dasharray="6 4"/>
    <g id="ITEM_3_ICON" transform="translate(-34, 40)" data-icon-size="68" stroke-dasharray="6 4">
      <g transform="translate(-7.005714285714291,-7.005714285714289) scale(2.562857142857143)">
        <path d="M5 4.5C5 3.67157 5.67157 3 6.5 3H25.5C26.3284 3 27 3.67157 27 4.5V28.5C27 29.3284 26.3284 30 25.5 30H6.5C5.67157 30 5 29.3284 5 28.5V4.5Z" fill="#E19747"/>
        <path d="M25 6C25 5.44772 24.5523 5 24 5H8C7.44772 5 7 5.44772 7 6V27C7 27.5523 7.44772 28 8 28H18.5858C18.7327 28 18.8764 27.9677 19.0071 27.9069L19.3282 27.1239L19.96 23.0379L24.4166 22.255L24.9064 22.0082C24.9675 21.8772 25 21.7332 25 21.5858V6Z" fill="#F3EEF8"/>
        <path d="M24.9102 22H20C19.4477 22 19 22.4477 19 23V27.9102C19.108 27.861 19.2074 27.7926 19.2929 27.7071L24.7071 22.2929C24.7926 22.2074 24.861 22.108 24.9102 22Z" fill="#CDC4D6"/>
        <path d="M18 4C18 2.89543 17.1046 2 16 2C14.8954 2 14 2.89543 14 4H13C11.8954 4 11 4.89543 11 6V7.5C11 7.77614 11.2239 8 11.5 8H20.5C20.7761 8 21 7.77614 21 7.5V6C21 4.89543 20.1046 4 19 4H18ZM17 4C17 4.55228 16.5523 5 16 5C15.4477 5 15 4.55228 15 4C15 3.44772 15.4477 3 16 3C16.5523 3 17 3.44772 17 4Z" fill="#9B9B9B"/>
        <path d="M9 12.5C9 12.2239 9.22386 12 9.5 12H22.5C22.7761 12 23 12.2239 23 12.5C23 12.7761 22.7761 13 22.5 13H9.5C9.22386 13 9 12.7761 9 12.5Z" fill="#9B9B9B"/>
        <path d="M9 15.5C9 15.2239 9.22386 15 9.5 15H22.5C22.7761 15 23 15.2239 23 15.5C23 15.7761 22.7761 16 22.5 16H9.5C9.22386 16 9 15.7761 9 15.5Z" fill="#9B9B9B"/>
        <path d="M9.5 18C9.22386 18 9 18.2239 9 18.5C9 18.7761 9.22386 19 9.5 19H22.5C22.7761 19 23 18.7761 23 18.5C23 18.2239 22.7761 18 22.5 18H9.5Z" fill="#9B9B9B"/>
        <path d="M9 21.5C9 21.2239 9.22386 21 9.5 21H17.5C17.7761 21 18 21.2239 18 21.5C18 21.7761 17.7761 22 17.5 22H9.5C9.22386 22 9 21.7761 9 21.5Z" fill="#9B9B9B"/>
      </g>
    </g>
    <text id="ITEM_3_HEAD" x="0.0" y="138.0" text-anchor="middle" font-size="44" font-weight="800" fill="var(--accent-5)" data-bg-id="ITEM_3_BG" fill-opacity="1.0" stroke="none" style="font-size: 30px; font-family: Inter, Segoe UI, Kalam, Roboto, Helvetica, Arial, sans-serif; font-weight: 700; letter-spacing:-0.4px;" data-final-font-size="30">
      <tspan x="0.0" dy="42.25px">Receive Feedback</tspan>
    </text>
    <rect id="ITEM_3_HEAD_FRAME" x="-165.0" y="138" width="330.0" height="68" fill="none"/>
    <text id="ITEM_3_BODY" x="0.0" y="206.0" text-anchor="middle" font-size="27" fill="var(--primary-text)" data-bg-id="ITEM_3_BG" style="font-size: 26px; font-family: Inter, Segoe UI, Kalam, Roboto, Helvetica, Arial, sans-serif; font-weight: 400;" data-final-font-size="26">
      <tspan x="0.0" dy="39.64px">Get immediate correction</tspan>
      <tspan x="0.0" dy="29.90px">on specific deviations</tspan>
    </text>
    <rect id="ITEM_3_BODY_FRAME" x="-190.0" y="206" width="380" height="154" fill="none"/>
  </g>
  <g transform="translate(690.0, 670.0)" filter="url(#svgd8223180-soft-shadow)">
    <rect id="ITEM_4_BG" x="-200.0" y="0" width="400.0" height="360" rx="26" fill="var(--panel)" fill-opacity="0.95" stroke="var(--accent-4)" stroke-width="3"/>
    <rect x="-184.0" y="12" width="368.0" height="8" rx="4" fill="var(--accent-4)" fill-opacity="0.55"/>
    <circle id="ITEM_4_PAD" cx="0" cy="74" r="46" fill="var(--icon-pad-bg)" stroke="var(--primary-text)" opacity="0.9" fill-opacity="0.9" stroke-width="2"/>
    <circle id="ITEM_4_PAD_INNER" cx="0" cy="74" r="35.88" fill="var(--accent-6)" fill-opacity="0.22"/>
    <circle cx="0" cy="74" r="36" fill="none" stroke="var(--accent-4)" stroke-width="3" stroke-dasharray="6 4"/>
    <g id="ITEM_4_ICON" transform="translate(-34, 40)" data-icon-size="68" stroke-dasharray="6 4">
      <g transform="translate(-8.524444444444448,-8.524444444444448) scale(3.543703703703704)" vector-effect="non-scaling-stroke" fill="#f1f5f9" fill-opacity="1.0" stroke="none">
        <path fill="#f1f5f9" d="M12 2A10 10 0 0 0 2 12a10 10 0 0 0 10 10a10 10 0 0 0 10-10A10 10 0 0 0 12 2m0 18c-4.41 0-8-3.59-8-8s3.59-8 8-8s8 3.59 8 8s-3.59 8-8 8m3-8a3 3 0 0 1-3 3a3 3 0 0 1-3-3a3 3 0 0 1 3-3a3 3 0 0 1 3 3" vector-effect="non-scaling-stroke" stroke="none"/>
      </g>
    </g>
    <text id="ITEM_4_HEAD" x="0.0" y="138.0" text-anchor="middle" font-size="44" font-weight="800" fill="var(--accent-6)" data-bg-id="ITEM_4_BG" fill-opacity="1.0" stroke="none" style="font-size: 30px; font-family: Inter, Segoe UI, Kalam, Roboto, Helvetica, Arial, sans-serif; font-weight: 700; letter-spacing:-0.4px;" data-final-font-size="30">
      <tspan x="0.0" dy="42.25px">Adjust Technique</tspan>
    </text>
    <rect id="ITEM_4_HEAD_FRAME" x="-165.0" y="138" width="330.0" height="68" fill="none"/>
    <text id="ITEM_4_BODY" x="0.0" y="206.0" text-anchor="middle" font-size="27" fill="var(--primary-text)" data-bg-id="ITEM_4_BG" style="font-size: 26px; font-family: Inter, Segoe UI, Kalam, Roboto, Helvetica, Arial, sans-serif; font-weight: 400;" data-final-font-size="26">
      <tspan x="0.0" dy="39.64px">Make a small change to fix</tspan>
      <tspan x="0.0" dy="29.90px">the identified error</tspan>
    </text>
    <rect id="ITEM_4_BODY_FRAME" x="-190.0" y="206" width="380" height="154" fill="none"/>
  </g>
  <g transform="translate(1230.0, 670.0)" filter="url(#svgd8223180-soft-shadow)">
    <rect id="ITEM_5_BG" x="-200.0" y="0" width="400.0" height="360" rx="26" fill="var(--panel)" fill-opacity="0.95" stroke="var(--accent-5)" stroke-width="3"/>
    <rect x="-184.0" y="12" width="368.0" height="8" rx="4" fill="var(--accent-5)" fill-opacity="0.55"/>
    <circle id="ITEM_5_PAD" cx="0" cy="74" r="46" fill="var(--icon-pad-bg)" stroke="var(--primary-text)" opacity="0.9" fill-opacity="0.9" stroke-width="2"/>
    <circle id="ITEM_5_PAD_INNER" cx="0" cy="74" r="35.88" fill="var(--accent-1)" fill-opacity="0.22"/>
    <circle cx="0" cy="74" r="36" fill="none" stroke="var(--accent-5)" stroke-width="3" stroke-dasharray="6 4"/>
    <g id="ITEM_5_ICON" transform="translate(-34, 40)" data-icon-size="68" stroke-dasharray="6 4">
      <g transform="translate(-7.326071428571435,-7.005714285714289) scale(2.562857142857143)">
        <path d="M18.015 6L16.015 5L14.015 6V9H18.015V6ZM10.645 11.19L8.195 13.64C7.695 14.14 6.895 14.14 6.405 13.64L5.375 12.61C4.875 12.11 4.875 11.31 5.375 10.82L7.825 8.37C8.325 7.87 9.125 7.87 9.615 8.37L10.655 9.41C11.145 9.89 11.145 10.7 10.645 11.19ZM23.825 13.64L21.375 11.19C20.875 10.7 20.875 9.88999 21.375 9.39999L22.415 8.35999C22.905 7.85999 23.705 7.85999 24.205 8.35999L26.655 10.81C27.155 11.3 27.155 12.1 26.655 12.6L25.615 13.64C25.125 14.14 24.325 14.14 23.825 13.64Z" fill="#D3D3D3"/>
        <path d="M13.275 6H18.745C19.445 6 20.015 5.43 20.005 4.73V3.27C20.005 2.57 19.435 2 18.735 2H13.275C12.575 2 12.015 2.57 12.005 3.27V4.73C12.005 5.43 12.575 6 13.275 6ZM27.015 19C27.015 25.0751 22.0901 30 16.015 30C9.93988 30 5.01501 25.0751 5.01501 19C5.01501 12.9249 9.93988 8 16.015 8C22.0901 8 27.015 12.9249 27.015 19Z" fill="#636363"/>
        <path d="M16.015 28C20.9856 28 25.015 23.9706 25.015 19C25.015 14.0294 20.9856 10 16.015 10C11.0445 10 7.01501 14.0294 7.01501 19C7.01501 23.9706 11.0445 28 16.015 28Z" fill="white"/>
        <path d="M19.545 14.0499L20.255 13.3399C20.645 12.9499 21.275 12.9499 21.665 13.3399C22.055 13.7299 22.055 14.3599 21.665 14.7499L20.955 15.4599C20.565 15.8499 19.935 15.8499 19.545 15.4599C19.155 15.0799 19.155 14.4399 19.545 14.0499Z" fill="#9B9B9B"/>
        <path d="M15.015 13V12C15.015 11.45 15.465 11 16.015 11C16.565 11 17.015 11.45 17.015 12V13C17.015 13.55 16.565 14 16.015 14C15.455 14 15.015 13.55 15.015 13ZM15.015 26V25C15.015 24.45 15.465 24 16.015 24C16.565 24 17.015 24.45 17.015 25V26C17.015 26.55 16.565 27 16.015 27C15.455 27 15.015 26.55 15.015 26ZM23.015 18H22.015C21.455 18 21.015 18.45 21.015 19C21.015 19.55 21.465 20 22.015 20H23.015C23.565 20 24.015 19.55 24.015 19C24.015 18.45 23.565 18 23.015 18ZM9.01501 18H10.015C10.565 18 11.015 18.45 11.015 19C11.015 19.55 10.565 20 10.015 20H9.01501C8.46501 20 8.01501 19.55 8.01501 19C8.01501 18.45 8.45501 18 9.01501 18ZM21.675 23.2501L20.965 22.5401C20.565 22.1501 19.935 22.1501 19.555 22.5401C19.165 22.9301 19.165 23.5601 19.555 23.9501L20.265 24.6601C20.655 25.0501 21.285 25.0501 21.675 24.6601C22.065 24.2701 22.065 23.6401 21.675 23.2501ZM11.765 13.35L12.475 14.06C12.865 14.45 12.865 15.08 12.475 15.47C12.085 15.86 11.455 15.86 11.065 15.47L10.355 14.76C9.965 14.37 9.965 13.74 10.355 13.35C10.745 12.95 11.375 12.95 11.765 13.35ZM11.065 22.53L10.355 23.24C9.965 23.64 9.965 24.27 10.355 24.65C10.745 25.04 11.375 25.04 11.765 24.65L12.475 23.94C12.865 23.55 12.865 22.92 12.475 22.53C12.085 22.14 11.455 22.14 11.065 22.53Z" fill="#D3D3D3"/>
        <path d="M15.305 19.7101C14.915 19.3201 14.915 18.6901 15.305 18.3001L20.255 13.3501C20.645 12.9601 21.275 12.9601 21.665 13.3501C22.055 13.7401 22.055 14.3701 21.665 14.7601L16.715 19.7101C16.325 20.1001 15.695 20.1001 15.305 19.7101Z" fill="#F8312F"/>
      </g>
    </g>
    <text id="ITEM_5_HEAD" x="0.0" y="138.0" text-anchor="middle" font-size="44" font-weight="800" fill="var(--accent-1)" data-bg-id="ITEM_5_BG" fill-opacity="1.0" stroke="none" style="font-size: 30px; font-family: Inter, Segoe UI, Kalam, Roboto, Helvetica, Arial, sans-serif; font-weight: 700; letter-spacing:-0.4px;" data-final-font-size="30">
      <tspan x="0.0" dy="42.25px">Repeat Loop</tspan>
    </text>
    <rect id="ITEM_5_HEAD_FRAME" x="-165.0" y="138" width="330.0" height="68" fill="none"/>
    <text id="ITEM_5_BODY" x="0.0" y="206.0" text-anchor="middle" font-size="27" fill="var(--primary-text)" data-bg-id="ITEM_5_BG" style="font-size: 26px; font-family: Inter, Segoe UI, Kalam, Roboto, Helvetica, Arial, sans-serif; font-weight: 400;" data-final-font-size="26">
      <tspan x="0.0" dy="39.64px">Immediately retry the task</tspan>
      <tspan x="0.0" dy="29.90px">with the new adjustment</tspan>
    </text>
    <rect id="ITEM_5_BODY_FRAME" x="-190.0" y="206" width="380" height="154" fill="none"/>
  </g>
</svg>
