<?xml version='1.0' encoding='utf-8'?>
<svg xmlns="http://www.w3.org/2000/svg" width="1920" height="1080" viewBox="0 0 1920 1080" data-theme="light">
  <style>
        @font-face {
            font-family: 'Inter';
            src: url('assets/fonts/Inter-Regular.ttf') format('truetype');
            font-weight: 400;
            font-style: normal;
            font-display: swap;
        }
        @font-face {
            font-family: 'Inter';
            src: url('assets/fonts/Inter-Bold.ttf') format('truetype');
            font-weight: 600;
            font-style: normal;
            font-display: swap;
        }
        @font-face {
            font-family: 'Inter';
            src: url('assets/fonts/Inter-Bold.ttf') format('truetype');
            font-weight: 800;
            font-style: normal;
            font-display: swap;
        }
        
:root {
    --background: #f8fafc;
    --panel: #ffffff;
    --primary-text: #0f172a;
    --muted-text: #64748b;
    --inverse-text: #ffffff;
    --border: #e2e8f0;
    --shadow-color: #000000;
    --icon-pad-bg: #1e293b;
    --art-glow: #0891b2;
    --art-glow-opacity: 0.10;
    --art-sheen: #ffffff;
    --art-sheen-opacity: 0.34;
    --art-shadow: #0f172a;
    --art-shadow-opacity: 0.14;
    --art-muted-line: #94a3b8;
    --art-panel-tint: #f1f5f9;
    --font-family: 'Inter', 'Segoe UI', 'Kalam', Roboto, Helvetica, Arial, sans-serif;
    --radius-xl: 16px;
    --font-family-headline: 'Inter', 'Segoe UI', 'Kalam', Roboto, Helvetica, Arial, sans-serif;
    --font-family-body: 'Inter', 'Segoe UI', 'Kalam', Roboto, Helvetica, Arial, sans-serif;
    --font-heading: 'Inter', 'Segoe UI', 'Kalam', Roboto, Helvetica, Arial, sans-serif;
    --font-body: 'Inter', 'Segoe UI', 'Kalam', Roboto, Helvetica, Arial, sans-serif;
    --font-size-h1: 56px;
    --font-size-h2: 40px;
    --font-size-h3: 28px;
    --font-size-body: 24px;
    --font-size-caption: 18px;
    --secondary-text: var(--muted-text);
    --panel-border: var(--border);
    --font-weight-normal: 400;
    --font-weight-medium: 500;
    --font-weight-semibold: 600;
    --font-weight-bold: 700;
    --spacing-gutter-pct: 0.07;
    --spacing-top-pct: 0.15;
    --spacing-bottom-pct: 0.07;
    --spacing-title-y-pct: 0.055;
    --accent-1: #2563eb;
    --accent-2: #16a34a;
    --accent-3: #ea580c;
    --accent-4: #7c3aed;
    --accent-5: #0284c7;
    --accent-6: #475569;
}
:root[data-theme="dark"] {
    --background: #0f172a;
    --panel: #1e293b;
    --primary-text: #f1f5f9;
    --muted-text: #94a3b8;
    --inverse-text: #0f172a;
    --border: #334155;
    --shadow-color: #000000;
    --icon-pad-bg: #1e293b;
    --art-glow: #7dd3fc;
    --art-glow-opacity: 0.18;
    --art-sheen: #ffffff;
    --art-sheen-opacity: 0.18;
    --art-shadow: #000000;
    --art-shadow-opacity: 0.28;
    --art-muted-line: #64748b;
    --art-panel-tint: #1e293b;
    --accent-1: #60a5fa;
    --accent-2: #4ade80;
    --accent-3: #f97316;
    --accent-4: #a78bfa;
    --accent-5: #38bdf8;
    --accent-6: #94a3b8;
}
:root[data-theme="light"] {
    --background: #f8fafc;
    --panel: #ffffff;
    --primary-text: #0f172a;
    --muted-text: #64748b;
    --inverse-text: #ffffff;
    --border: #e2e8f0;
    --shadow-color: #000000;
    --icon-pad-bg: #1e293b;
    --art-glow: #0891b2;
    --art-glow-opacity: 0.10;
    --art-sheen: #ffffff;
    --art-sheen-opacity: 0.34;
    --art-shadow: #0f172a;
    --art-shadow-opacity: 0.14;
    --art-muted-line: #94a3b8;
    --art-panel-tint: #f1f5f9;
    --accent-1: #2563eb;
    --accent-2: #16a34a;
    --accent-3: #ea580c;
    --accent-4: #7c3aed;
    --accent-5: #0284c7;
    --accent-6: #475569;
}</style>
  <rect x="0" y="0" width="1.92E+3" height="1.08E+3" fill="#252a34" stroke="none" id="programmatic_background"/>
  <line id="HEADER_DECOR" x1="960.0" x2="1080.0" y1="85.0" y2="85.0" stroke="var(--accent-1)" stroke-width="6" stroke-linecap="round"/>
  <defs>
    <pattern id="svg205124e7-napkin-hatch" patternUnits="userSpaceOnUse" width="12" height="12">
      <path d="M -3 12 L 12 -3 M 0 15 L 15 0" fill="none" stroke="var(--primary-text)" stroke-width="1" stroke-opacity="0.05"/>
    </pattern>
    <filter id="svg205124e7-shadow" x="-30%" y="-30%" width="160%" height="160%">
      <feDropShadow dx="0" dy="2" stdDeviation="3" flood-color="#000000" flood-opacity="0.08"/>
      <feDropShadow dx="0" dy="6" stdDeviation="10" flood-color="#000000" flood-opacity="0.12"/>
    </filter>
    <marker id="svg205124e7-arrowhead" markerWidth="10" markerHeight="10" refX="9" refY="5" orient="auto">
      <path d="M 0 0 L 10 5 L 0 10 Z" fill="var(--accent-1)"/>
    </marker>
    <filter id="svg205124e7-text-glow" x="-20%" y="-20%" width="140%" height="140%">
      <feDropShadow dx="0" dy="0" stdDeviation="2" flood-color="#000000" flood-opacity="0.4"/>
    </filter>
    <radialGradient id="svg205124e7-universal-edge-vignette" cx="50%" cy="50%" r="72%">
      <stop offset="0%" stop-color="var(--background)" stop-opacity="0"/>
      <stop offset="72%" stop-color="var(--background)" stop-opacity="0.12"/>
      <stop offset="100%" stop-color="var(--primary-text)" stop-opacity="0.08"/>
    </radialGradient>
    <linearGradient id="svg205124e7-universal-surface-sheen" x1="0%" y1="0%" x2="100%" y2="100%">
      <stop offset="0%" stop-color="var(--art-sheen)" stop-opacity="var(--art-sheen-opacity)"/>
      <stop offset="46%" stop-color="var(--art-sheen)" stop-opacity="0.035"/>
      <stop offset="100%" stop-color="var(--art-panel-tint)" stop-opacity="0.14"/>
    </linearGradient>
    <radialGradient id="svg205124e7-universal-icon-aura" cx="50%" cy="42%" r="64%">
      <stop offset="0%" stop-color="var(--art-glow)" stop-opacity="var(--art-glow-opacity)"/>
      <stop offset="100%" stop-color="var(--background)" stop-opacity="0"/>
    </radialGradient>
    <linearGradient id="svg205124e7-card-panel-sheen" x1="0%" y1="0%" x2="100%" y2="100%">
      <stop offset="0%" stop-color="var(--inverse-text)" stop-opacity="0.20"/>
      <stop offset="48%" stop-color="var(--inverse-text)" stop-opacity="0.04"/>
      <stop offset="100%" stop-color="var(--background)" stop-opacity="0.16"/>
    </linearGradient>
    <radialGradient id="svg205124e7-card-icon-glow" cx="50%" cy="35%" r="62%">
      <stop offset="0%" stop-color="var(--inverse-text)" stop-opacity="0.22"/>
      <stop offset="100%" stop-color="var(--background)" stop-opacity="0"/>
    </radialGradient>
  </defs>
  <rect width="100%" height="100%" fill="var(--background)" id="CANVAS_BG"/>
  <rect width="100%" height="100%" fill="url(#svg205124e7-napkin-hatch)"/>
  <rect id="UNIVERSAL_EDGE_VIGNETTE" width="100%" height="100%" fill="url(#svg205124e7-universal-edge-vignette)" opacity="0.62"/>
  <text id="TITLE" x="960.0" y="59" font-size="48" font-weight="700" fill="#0f172a" text-anchor="middle" style="font-size: 60px; font-family: Inter, Segoe UI, Kalam, Roboto, Helvetica, Arial, sans-serif; font-weight: 700; letter-spacing:-1.2px;" data-final-font-size="60">
    <tspan x="960.0" dy="68.00px">Minimum Viable Behaviors</tspan>
  </text>
  <rect id="TITLE_FRAME" x="134" y="25" width="1652" height="70" fill="none"/>
  <g id="DIAGRAM_MAIN">
    <rect id="ITEM_1_BG" x="485" y="170" width="480" height="410" rx="16" fill="var(--accent-3)" stroke="var(--accent-1)" stroke-width="2" filter="url(#svg205124e7-shadow)" fill-opacity="1.0"/>
    <rect x="485" y="170" width="480" height="410" rx="16" fill="url(#svg205124e7-card-panel-sheen)" opacity="0.88"/>
    <rect x="485" y="186" width="460" height="12" fill="var(--accent-1)"/>
    <rect id="ITEM_1_HEAD_FRAME" x="500" y="288" width="450" height="96" fill="none"/>
    <rect id="ITEM_1_BODY_FRAME" x="500" y="382" width="450" height="168" fill="none"/>
    <circle id="ITEM_1_PAD" cx="715" cy="231" r="55" fill="var(--icon-pad-bg)" stroke="var(--primary-text)" opacity="0.9" fill-opacity="0.9" stroke-width="2"/>
    <circle cx="715" cy="231" r="44" fill="none" stroke="var(--accent-1)" stroke-width="3" stroke-dasharray="6 4"/>
    <circle id="ITEM_1_BADGE" cx="715" cy="231" r="43" fill="var(--accent-1)" stroke="var(--background)" stroke-width="4" fill-opacity="0.35" opacity="0.85" stroke-opacity="0.75"/>
    <g id="ITEM_1_ICON" transform="translate(682, 198)" data-icon-size="66">
      <g transform="translate(-16.028571428571425,-15.645535714285709) scale(3.064285714285714)">
        <path d="M26.5853 2.05627C26.9353 1.90627 27.3353 2.06627 27.4853 2.41627C27.5553 2.57627 27.5553 2.74627 27.4953 2.89627C27.4553 3.03627 27.4453 3.17627 27.5053 3.30627L27.8553 4.07627L27.2053 4.35627L26.8653 3.57627C26.8053 3.44627 26.6953 3.35627 26.5653 3.29627C26.4153 3.22627 26.2953 3.11627 26.2253 2.95627C26.0753 2.60627 26.2353 2.20627 26.5853 2.05627ZM25.9054 3.13624C25.7554 2.78624 25.3554 2.62624 25.0054 2.77624C24.6554 2.92624 24.4954 3.32624 24.6454 3.67624C24.7154 3.83624 24.8354 3.94624 24.9854 4.01624C25.1154 4.07624 25.2254 4.16624 25.2854 4.29624L25.6254 5.07624L26.2754 4.79624L25.9354 4.01624C25.8754 3.88624 25.8854 3.74624 25.9254 3.60624C25.9654 3.46624 25.9654 3.29624 25.9054 3.13624ZM24.3153 3.85621C24.1653 3.50621 23.7653 3.34621 23.4153 3.49621C23.0653 3.64621 22.9053 4.04621 23.0553 4.39621C23.1253 4.55621 23.2453 4.66621 23.3953 4.73621C23.5253 4.79621 23.6353 4.88621 23.6953 5.01621L24.0353 5.79621L24.6853 5.51621L24.3453 4.73621C24.2853 4.60621 24.2853 4.46621 24.3353 4.32621C24.3853 4.17621 24.3853 4.01621 24.3153 3.85621Z" fill="#D3D3D3"/>
        <path d="M16.5253 23.0763C16.6453 21.7063 17.6553 20.5763 19.0153 20.3063C19.5653 20.1963 20.1053 20.0063 20.6253 19.7463C21.3853 19.3663 21.6953 18.4363 21.3153 17.6763C20.9353 16.9163 20.0053 16.6063 19.2453 16.9863C17.9553 17.6363 16.3953 17.3863 15.3653 16.3563C14.0653 15.0563 14.0553 12.9363 15.3453 11.6263C15.9453 11.0163 15.9753 10.0363 15.3753 9.42629C14.7753 8.81629 13.7853 8.81629 13.1853 9.41629C12.2553 10.3463 11.6653 11.4963 11.4253 12.7063C11.1553 14.0663 10.0053 15.0563 8.62532 15.1863C6.96532 15.3363 5.35532 16.0463 4.09532 17.3163C1.26532 20.1763 1.30532 24.8863 4.19532 27.6863C7.04532 30.4563 11.6053 30.4263 14.4253 27.6063C15.6753 26.3463 16.3853 24.7263 16.5253 23.0763Z" fill="#CA0B4A"/>
        <path d="M15.3853 18.0463C15.0753 17.9363 14.7853 17.7563 14.5353 17.5063C14.3853 17.3563 14.2553 17.1863 14.1453 17.0063C13.9753 16.7263 13.8653 16.4163 13.8253 16.1063C13.7653 15.7163 13.5353 15.3863 13.2053 15.1963C13.0653 15.1163 12.9053 15.0663 12.7453 15.0463C12.2753 14.9963 11.8153 15.2163 11.5653 15.6263C11.2553 16.1363 10.6953 16.4663 10.0453 16.4963C8.95527 16.5363 7.91527 16.9463 7.12527 17.7463C7.11527 17.7563 7.11527 17.7563 7.10527 17.7663C6.11527 18.7863 6.13527 20.4163 7.13527 21.4163L9.38527 23.6663C10.3253 24.6063 9.60527 25.8763 9.59527 26.7663C9.59527 26.9263 9.62527 27.0963 9.68527 27.2463C9.95527 27.9463 10.7653 28.2763 11.4653 27.9963C12.2153 27.6963 12.8953 27.2563 13.4753 26.6663C13.9853 26.1563 14.3853 25.5763 14.6853 24.9363C14.9653 24.3163 15.0853 23.6463 15.2053 22.9663C15.3653 22.0763 15.8053 21.2563 16.5253 20.5763C17.0653 19.9863 17.6453 19.6563 18.4653 19.4663C18.6353 19.4263 19.0053 19.2863 19.1553 19.1863C19.4153 19.0163 19.4753 18.8063 19.4053 18.6263C19.1953 18.0263 18.6853 18.2063 18.2953 18.2763C17.6253 18.4063 17.0553 18.3363 16.8753 18.3163C16.8253 18.3063 16.7853 18.3063 16.7353 18.2963C16.4853 18.2563 15.7253 18.1663 15.3853 18.0463Z" fill="#F4F4F4"/>
        <path d="M9.36532 24.7662L6.95532 22.3563C6.85532 22.2563 6.69532 22.2563 6.59532 22.3563L5.52532 23.4062C5.42532 23.5062 5.42532 23.6662 5.52532 23.7662L7.93532 26.1762C8.03532 26.2762 8.19532 26.2762 8.29532 26.1762L9.35532 25.1163C9.46532 25.0263 9.46532 24.8662 9.36532 24.7662Z" fill="#9B9B9B"/>
        <path d="M12.2054 17.9663L13.7354 19.4963C13.9754 19.7363 13.9754 20.1163 13.7354 20.3463C13.4954 20.5763 13.1154 20.5763 12.8854 20.3463L11.3554 18.8163C11.1254 18.5763 11.1254 18.1963 11.3554 17.9663C11.5954 17.7363 11.9754 17.7363 12.2054 17.9663ZM10.1954 19.9862L11.7254 21.5162C11.9554 21.7462 11.9554 22.1262 11.7254 22.3662C11.4854 22.5962 11.1054 22.5962 10.8754 22.3662L9.34535 20.8362C9.11535 20.5962 9.11535 20.2162 9.34535 19.9862C9.58535 19.7562 9.96535 19.7562 10.1954 19.9862Z" fill="#D3D3D3"/>
        <path d="M25.0553 8.53625L24.5 7L23.1753 6.65625L13.6453 16.1863C13.3953 16.4363 13.3953 16.8363 13.6453 17.0763L14.6353 18.0662C14.8853 18.3162 15.2853 18.3162 15.5253 18.0662L25.0553 8.53625Z" fill="#635994"/>
        <path d="M26.1953 8.40626L27.2753 6.59626C27.3953 6.39626 27.6353 6.30626 27.8553 6.39626C28.4253 6.61626 29.0953 6.49626 29.5353 6.01626C30.0753 5.43626 30.0853 4.52626 29.5553 3.94626C29.0353 3.37626 28.2953 3.36626 27.5853 3.68626L23.4853 5.57626C23.0353 5.82626 22.9553 6.43626 23.3153 6.80626L25.0153 8.50626C25.3553 8.83626 25.9153 8.79626 26.1953 8.40626Z" fill="#CA0B4A"/>
      </g>
    </g>
    <text id="ITEM_1_HEAD" x="725.0" y="288.0" font-weight="700" font-size="26" fill="var(--primary-text)" text-anchor="middle" data-bg-id="ITEM_1_BG" fill-opacity="1.0" style="font-size: 30px; font-family: Inter, Segoe UI, Kalam, Roboto, Helvetica, Arial, sans-serif; font-weight: 700; letter-spacing:-0.4px;" data-final-font-size="30">
      <tspan x="725.0" dy="56.25px">Movement</tspan>
    </text>
    <text id="ITEM_1_BODY" x="725.0" y="382.0" font-size="21" fill="var(--primary-text)" text-anchor="middle" data-bg-id="ITEM_1_BG" style="font-size: 26px; font-family: Inter, Segoe UI, Kalam, Roboto, Helvetica, Arial, sans-serif; font-weight: 400;" data-final-font-size="26">
      <tspan x="725.0" dy="42.44px">Action contains core</tspan>
      <tspan x="725.0" dy="29.90px">skill mechanics</tspan>
    </text>
    <rect id="ITEM_2_BG" x="975" y="170" width="480" height="410" rx="16" fill="var(--accent-4)" stroke="var(--accent-2)" stroke-width="2" filter="url(#svg205124e7-shadow)" fill-opacity="1.0"/>
    <rect x="975" y="170" width="480" height="410" rx="16" fill="url(#svg205124e7-card-panel-sheen)" opacity="0.88"/>
    <rect x="975" y="186" width="460" height="12" fill="var(--accent-2)"/>
    <rect id="ITEM_2_HEAD_FRAME" x="990" y="288" width="450" height="96" fill="none"/>
    <rect id="ITEM_2_BODY_FRAME" x="990" y="382" width="450" height="168" fill="none"/>
    <circle id="ITEM_2_PAD" cx="1205" cy="231" r="55" fill="var(--icon-pad-bg)" stroke="var(--primary-text)" opacity="0.9" fill-opacity="0.9" stroke-width="2"/>
    <circle cx="1205" cy="231" r="44" fill="none" stroke="var(--accent-2)" stroke-width="3" stroke-dasharray="6 4"/>
    <circle id="ITEM_2_BADGE" cx="1205" cy="231" r="43" fill="var(--accent-2)" stroke="var(--background)" stroke-width="4" fill-opacity="0.35" opacity="0.85" stroke-opacity="0.75"/>
    <g id="ITEM_2_ICON" transform="translate(1172, 198)" data-icon-size="66">
      <g transform="translate(-16.028571428571425,-16.028571428571425) scale(3.064285714285714)" vector-effect="non-scaling-stroke" fill="#ffffff" fill-opacity="1.0" stroke="none">
        <path fill="#ffffff" d="m25.7 9.3l-7-7c-.2-.2-.4-.3-.7-.3H8c-1.1 0-2 .9-2 2v24c0 1.1.9 2 2 2h16c1.1 0 2-.9 2-2V10c0-.3-.1-.5-.3-.7M18 4.4l5.6 5.6H18zM24 28H8V4h8v6c0 1.1.9 2 2 2h6z" vector-effect="non-scaling-stroke" stroke="none"/>
        <path fill="#ffffff" d="M10 22h12v2H10zm0-6h12v2H10z" vector-effect="non-scaling-stroke" stroke="none"/>
      </g>
    </g>
    <text id="ITEM_2_HEAD" x="1215.0" y="288.0" font-weight="700" font-size="26" fill="var(--inverse-text)" text-anchor="middle" data-bg-id="ITEM_2_BG" fill-opacity="1.0" style="font-size: 30px; font-family: Inter, Segoe UI, Kalam, Roboto, Helvetica, Arial, sans-serif; font-weight: 700; letter-spacing:-0.4px;" data-final-font-size="30">
      <tspan x="1215.0" dy="56.25px">Visible Output</tspan>
    </text>
    <text id="ITEM_2_BODY" x="1215.0" y="382.0" font-size="21" fill="var(--inverse-text)" text-anchor="middle" data-bg-id="ITEM_2_BG" style="font-size: 26px; font-family: Inter, Segoe UI, Kalam, Roboto, Helvetica, Arial, sans-serif; font-weight: 400;" data-final-font-size="26">
      <tspan x="1215.0" dy="42.44px">Task produces tangible</tspan>
      <tspan x="1215.0" dy="29.90px">physical trace</tspan>
    </text>
    <rect id="ITEM_3_BG" x="485" y="600" width="480" height="410" rx="16" fill="var(--accent-5)" stroke="var(--accent-3)" stroke-width="2" filter="url(#svg205124e7-shadow)" fill-opacity="1.0"/>
    <rect x="485" y="600" width="480" height="410" rx="16" fill="url(#svg205124e7-card-panel-sheen)" opacity="0.88"/>
    <rect x="485" y="616" width="460" height="12" fill="var(--accent-3)"/>
    <rect id="ITEM_3_HEAD_FRAME" x="500" y="718" width="450" height="96" fill="none"/>
    <rect id="ITEM_3_BODY_FRAME" x="500" y="812" width="450" height="168" fill="none"/>
    <circle id="ITEM_3_PAD" cx="715" cy="661" r="55" fill="var(--icon-pad-bg)" stroke="var(--primary-text)" opacity="0.9" fill-opacity="0.9" stroke-width="2"/>
    <circle cx="715" cy="661" r="44" fill="none" stroke="var(--accent-3)" stroke-width="3" stroke-dasharray="6 4"/>
    <circle id="ITEM_3_BADGE" cx="715" cy="661" r="43" fill="var(--accent-3)" stroke="var(--background)" stroke-width="4" fill-opacity="0.35" opacity="0.85" stroke-opacity="0.75"/>
    <g id="ITEM_3_ICON" transform="translate(682, 628)" data-icon-size="66">
      <g transform="translate(-13.535593220338981,-13.535593220338981) scale(3.877966101694915)" vector-effect="non-scaling-stroke" stroke-width="2.50" stroke-linecap="round" stroke-linejoin="round" stroke-opacity="1.0">
        <path d="M12 6v6l4 2" vector-effect="non-scaling-stroke" fill="none" stroke="#ffffff"/>
        <circle cx="12" cy="12" r="10" vector-effect="non-scaling-stroke" fill="none" stroke="#ffffff"/>
      </g>
    </g>
    <text id="ITEM_3_HEAD" x="725.0" y="718.0" font-weight="700" font-size="26" fill="var(--primary-text)" text-anchor="middle" data-bg-id="ITEM_3_BG" fill-opacity="1.0" style="font-size: 30px; font-family: Inter, Segoe UI, Kalam, Roboto, Helvetica, Arial, sans-serif; font-weight: 700; letter-spacing:-0.4px;" data-final-font-size="30">
      <tspan x="725.0" dy="56.25px">Frequent Repetition</tspan>
    </text>
    <text id="ITEM_3_BODY" x="725.0" y="812.0" font-size="21" fill="var(--primary-text)" text-anchor="middle" data-bg-id="ITEM_3_BG" style="font-size: 26px; font-family: Inter, Segoe UI, Kalam, Roboto, Helvetica, Arial, sans-serif; font-weight: 400;" data-final-font-size="26">
      <tspan x="725.0" dy="48.42px">Behavior repeats daily or weekly</tspan>
    </text>
    <rect id="ITEM_4_BG" x="975" y="600" width="480" height="410" rx="16" fill="var(--accent-6)" stroke="var(--accent-4)" stroke-width="2" filter="url(#svg205124e7-shadow)" fill-opacity="1.0"/>
    <rect x="975" y="600" width="480" height="410" rx="16" fill="url(#svg205124e7-card-panel-sheen)" opacity="0.88"/>
    <rect x="975" y="616" width="460" height="12" fill="var(--accent-4)"/>
    <rect id="ITEM_4_HEAD_FRAME" x="990" y="718" width="450" height="96" fill="none"/>
    <rect id="ITEM_4_BODY_FRAME" x="990" y="812" width="450" height="168" fill="none"/>
    <circle id="ITEM_4_PAD" cx="1205" cy="661" r="55" fill="var(--icon-pad-bg)" stroke="var(--primary-text)" opacity="0.9" fill-opacity="0.9" stroke-width="2"/>
    <circle cx="1205" cy="661" r="44" fill="none" stroke="var(--accent-4)" stroke-width="3" stroke-dasharray="6 4"/>
    <circle id="ITEM_4_BADGE" cx="1205" cy="661" r="43" fill="var(--accent-4)" stroke="var(--background)" stroke-width="4" fill-opacity="0.35" opacity="0.85" stroke-opacity="0.75"/>
    <g id="ITEM_4_ICON" transform="translate(1172, 628)" data-icon-size="66">
      <g transform="translate(-16.028571428571425,-16.028571428571425) scale(3.064285714285714)">
        <path d="M13.9722 3.06962L7.11285 29.0903C6.97408 29.6301 6.48837 30 5.9432 30H2.85056C2.28556 30 1.88907 29.4702 2.02784 28.9304L8.88715 2.90968C9.02592 2.37986 9.51163 2 10.0667 2H13.1494C13.7144 2 14.1109 2.52981 13.9722 3.06962Z" fill="#7D4533"/>
        <path d="M29.9726 3.06962L23.1187 29.0903C22.9702 29.6301 22.4947 30 21.9401 30H18.8499C18.2853 30 17.8892 29.4702 18.0278 28.9304L18.27 28.0109L17.3715 26.4623L19.0645 24.9947L20.1199 20.9878L19.2154 19.4619L20.9024 18.017L21.9639 13.9871L21.0599 12.4594L22.7474 11.0127L23.8146 6.9612L22.908 5.44292L24.593 4.0057L24.8817 2.90968C25.0204 2.37986 25.5057 2 26.0604 2H29.1506C29.7052 2 30.1113 2.52981 29.9726 3.06962Z" fill="#7D4533"/>
        <path d="M19.0631 25L18.2729 28H5.54632C5.1809 28 4.91163 27.6288 5.02703 27.2575L5.56556 25.4615C5.65211 25.1806 5.89252 25 6.1714 25H19.0631Z" fill="#A56953"/>
        <path d="M20.9069 18L20.1167 21H7.08312C6.69308 21 6.40568 20.6288 6.52885 20.2575L7.10365 18.4615C7.19603 18.1806 7.45263 18 7.7503 18H20.9069Z" fill="#A56953"/>
        <path d="M23.8043 7L24.5945 4H11.24C10.9424 4 10.6858 4.18 10.5934 4.46L10.0289 6.26C9.90568 6.63 10.1931 7 10.5831 7H23.8043Z" fill="#A56953"/>
        <path d="M22.7507 11H9.2503C8.95263 11 8.69603 11.1806 8.60365 11.4615L8.02885 13.2575C7.90568 13.6288 8.19308 14 8.58312 14H21.9605L22.7507 11Z" fill="#A56953"/>
      </g>
    </g>
    <text id="ITEM_4_HEAD" x="1215.0" y="718.0" font-weight="700" font-size="26" fill="var(--inverse-text)" text-anchor="middle" data-bg-id="ITEM_4_BG" fill-opacity="1.0" style="font-size: 30px; font-family: Inter, Segoe UI, Kalam, Roboto, Helvetica, Arial, sans-serif; font-weight: 700; letter-spacing:-0.4px;" data-final-font-size="30">
      <tspan x="1215.0" dy="56.25px">Future Progression</tspan>
    </text>
    <text id="ITEM_4_BODY" x="1215.0" y="812.0" font-size="21" fill="var(--inverse-text)" text-anchor="middle" data-bg-id="ITEM_4_BG" style="font-size: 26px; font-family: Inter, Segoe UI, Kalam, Roboto, Helvetica, Arial, sans-serif; font-weight: 400;" data-final-font-size="26">
      <tspan x="1215.0" dy="48.42px">Path allows scaling up later</tspan>
    </text>
  </g>
</svg>
